<?xml version="1.0" encoding="UTF-8"?>
<svg width="13px" height="13px" viewBox="0 0 13 13" version="1.1" xmlns="http://www.w3.org/2000/svg" xmlns:xlink="http://www.w3.org/1999/xlink">
    <!-- Generator: Sketch 40.3 (33839) - http://www.bohemiancoding.com/sketch -->
    <title>切图/我的菜单/已报名的比赛</title>
    <desc>Created with Sketch.</desc>
    <defs></defs>
    <g id="切图" stroke="none" stroke-width="1" fill="none" fill-rule="evenodd">
        <g id="中帆联/切图/" transform="translate(-43.000000, -707.000000)" stroke="#FFFFFF">
            <g id="切图/我的菜单/已报名的比赛" transform="translate(44.000000, 707.500000)">
                <path d="M2.56145563,5.80325527 C1.7044755,5.58695254 0.808157616,5.0136647 0.634270199,4.36967897 C0.629972185,4.34435329 0.625382781,4.31745813 0.620064901,4.28984957 L0.604475497,4.19746433 L0.60185298,4.19774969 C0.585607947,4.08624535 0.562806623,3.95162686 0.535270199,3.78918579 L0.0428927152,0.881440757 L1.81578675,0.869741005" id="Stroke-1"></path>
                <polyline id="Stroke-3" points="2.43846689 11.9363094 8.5602947 11.961521 8.56065894 11.961521"></polyline>
                <path d="M5.49506821,7.34192959 L5.55656821,11.9251647" id="Stroke-6"></path>
                <path d="M7.92295033,6.40964485 C7.32028146,7.03515354 6.43387086,7.34191532 5.49020199,7.34191532 L5.48357285,7.34191532 C4.57130132,7.34191532 3.73289735,7.04228753 3.12359934,6.40022798 C2.60805629,5.8574023 2.2855596,5.16376396 2.19114901,4.34399659 C2.18947351,4.32908654 2.18721523,4.32395006 2.18422848,4.30319014 L1.71931457,0.0454792184 L9.27988411,0.0357769851 L8.82458609,4.35962004 C8.73389073,5.17417959 8.40636755,5.88272798 7.92295033,6.40964485 Z" id="Stroke-8"></path>
                <path d="M9.15921192,0.857777295 L10.9532318,0.812690447 C10.8118344,1.62988958 10.4886821,3.49735546 10.3909934,4.06158313 L10.3695033,4.1874268 C10.1900066,4.92251365 9.30818543,5.5081433 8.43998675,5.72416067" id="Stroke-10"></path>
            </g>
        </g>
    </g>
</svg>