<?xml version="1.0" encoding="UTF-8"?>
<svg width="82px" height="82px" viewBox="0 0 82 82" version="1.1" xmlns="http://www.w3.org/2000/svg" xmlns:xlink="http://www.w3.org/1999/xlink">
    <!-- Generator: Sketch 40.3 (33839) - http://www.bohemiancoding.com/sketch -->
    <title>切图/赛事官网/播放图标</title>
    <desc>Created with Sketch.</desc>
    <defs></defs>
    <g id="切图" stroke="none" stroke-width="1" fill="none" fill-rule="evenodd">
        <g id="中帆联/切图/" transform="translate(-798.000000, -19.000000)" stroke="#FFFFFF">
            <g id="切图/赛事官网/播放图标" transform="translate(799.000000, 20.000000)">
                <path d="M79.8338462,39.9169231 C79.8338462,61.9630769 61.9630769,79.8369231 39.9169231,79.8369231 C17.8707692,79.8369231 0,61.9630769 0,39.9169231 C0,17.8738462 17.8707692,0 39.9169231,0 C61.9630769,0 79.8338462,17.8738462 79.8338462,39.9169231 L79.8338462,39.9169231 Z" id="Stroke-972" fill-opacity="0.348250679" fill="#FFFFFF"></path>
                <path d="M27.9695385,23.2015385 C27.9695385,22.5338462 28.4433846,22.26 29.0218462,22.5953846 L58.4710769,39.5984615 C59.0495385,39.9307692 59.0495385,40.4784615 58.4710769,40.8107692 L29.0218462,57.8138462 C28.4433846,58.1492308 27.9695385,57.8753846 27.9695385,57.2076923 L27.9695385,23.2015385 L27.9695385,23.2015385 Z" id="Stroke-772"></path>
            </g>
        </g>
    </g>
</svg>