<?xml version="1.0" encoding="UTF-8"?>
<svg width="16px" height="13px" viewBox="0 0 16 13" version="1.1" xmlns="http://www.w3.org/2000/svg" xmlns:xlink="http://www.w3.org/1999/xlink">
    <!-- Generator: Sketch 40.3 (33839) - http://www.bohemiancoding.com/sketch -->
    <title>切图/我的菜单/船队管理</title>
    <desc>Created with Sketch.</desc>
    <defs></defs>
    <g id="切图" stroke="none" stroke-width="1" fill="none" fill-rule="evenodd">
        <g id="中帆联/切图/" transform="translate(-46.000000, -496.000000)" stroke="#FFFFFF">
            <g id="切图/我的菜单/船队管理" transform="translate(47.000000, 496.500000)">
                <path d="M5.01277521,6.44556832 C6.71221322,6.44556832 8.12227934,4.99748911 8.12227934,3.25249901 C8.12227934,1.5073901 6.7483124,0.059429703 5.01277521,0.059429703 C3.27723802,0.059429703 1.90327107,1.5073901 1.90327107,3.25249901 C1.90327107,4.99748911 3.31333719,6.44556832 5.01277521,6.44556832 Z" id="Stroke-1"></path>
                <path d="M5.01277521,6.44556832 C2.3010562,6.44556832 0.131519008,8.89606337 0.0592049587,11.9778059 L9.96634545,11.9778059 C9.8940314,8.89606337 7.72460992,6.44556832 5.01277521,6.44556832 Z" id="Stroke-3"></path>
                <path d="M9.84287934,2.15112475 C9.1644,2.15112475 8.5530281,2.41952079 8.09727603,2.85484752 C8.11312727,2.98542178 8.12226777,3.11789703 8.12226777,3.25251089 C8.12226777,4.05342178 7.82468099,4.79136238 7.33884628,5.35583762 C7.59686281,6.52851089 8.63031736,7.42209505 9.84287934,7.42209505 C11.2455405,7.42209505 12.4093917,6.22684752 12.4093917,4.7866099 C12.4093917,3.34625347 11.2753917,2.15112475 9.84287934,2.15112475 Z" id="Stroke-5"></path>
                <path d="M9.84287934,7.42203564 C9.26841653,7.42203564 8.72380496,7.55605545 8.22998678,7.79712475 C9.26355702,8.80726337 9.92687934,10.2981149 9.96633388,11.9777584 L5.75487934,11.9777584 C5.75476364,11.981204 5.75453223,11.9846495 5.75441653,11.988095 L13.9313421,11.988095 C13.8716397,9.4445703 12.0811438,7.42203564 9.84287934,7.42203564 Z" id="Stroke-7"></path>
            </g>
        </g>
    </g>
</svg>