<?xml version="1.0" encoding="UTF-8"?>
<svg width="23px" height="23px" viewBox="0 0 23 23" version="1.1" xmlns="http://www.w3.org/2000/svg" xmlns:xlink="http://www.w3.org/1999/xlink">
    <!-- Generator: Sketch 40.3 (33839) - http://www.bohemiancoding.com/sketch -->
    <title>切图/常用/关闭</title>
    <desc>Created with Sketch.</desc>
    <defs></defs>
    <g id="切图" stroke="none" stroke-width="1" fill="none" fill-rule="evenodd">
        <g id="中帆联/切图/" transform="translate(-578.000000, -120.000000)">
            <g id="切图/常用/关闭" transform="translate(589.500000, 131.500000) rotate(45.000000) translate(-589.500000, -131.500000) translate(578.000000, 120.000000)">
                <circle id="Mask" fill="#D0011B" cx="11.5" cy="11.5" r="11"></circle>
                <path d="M12.2363636,11.2545455 L12.2363636,4.8718209 C12.2363636,4.60143382 12.0165761,4.38181818 11.7454545,4.38181818 C11.4822621,4.38181818 11.2545455,4.60119987 11.2545455,4.8718209 L11.2545455,11.2545455 L4.8718209,11.2545455 C4.60143382,11.2545455 4.38181818,11.4743329 4.38181818,11.7454545 C4.38181818,12.008647 4.60119987,12.2363636 4.8718209,12.2363636 L11.2545455,12.2363636 L11.2545455,18.6190882 C11.2545455,18.8894753 11.4743329,19.1090909 11.7454545,19.1090909 C12.008647,19.1090909 12.2363636,18.8897092 12.2363636,18.6190882 L12.2363636,12.2363636 L18.6190882,12.2363636 C18.8894753,12.2363636 19.1090909,12.0165761 19.1090909,11.7454545 C19.1090909,11.4822621 18.8897092,11.2545455 18.6190882,11.2545455 L12.2363636,11.2545455 Z" id="Combined-Shape" fill="#D8D8D8"></path>
            </g>
        </g>
    </g>
</svg>