<?xml version="1.0" encoding="UTF-8"?>
<svg width="14px" height="14px" viewBox="0 0 14 14" version="1.1" xmlns="http://www.w3.org/2000/svg" xmlns:xlink="http://www.w3.org/1999/xlink">
    <!-- Generator: Sketch 40.3 (33839) - http://www.bohemiancoding.com/sketch -->
    <title>切图/我的菜单/创建</title>
    <desc>Created with Sketch.</desc>
    <defs></defs>
    <g id="切图" stroke="none" stroke-width="1" fill="none" fill-rule="evenodd">
        <g id="中帆联/切图/" transform="translate(-46.000000, -532.000000)" fill="#FFFFFF">
            <g id="切图/我的菜单/创建" transform="translate(46.000000, 532.000000)">
                <path d="M7.20915792,6.2498898 L7.20915792,0.453848254 C7.20915792,0.203411474 7.00558728,0 6.75447017,0 C6.51069715,0 6.29978242,0.203194784 6.29978242,0.453848254 L6.29978242,6.2498898 L0.503740876,6.2498898 C0.253304096,6.2498898 0.0498926224,6.45346044 0.0498926224,6.70457755 C0.0498926224,6.94835057 0.253087407,7.1592653 0.503740876,7.1592653 L6.29978242,7.1592653 L6.29978242,13.1867842 C6.29978242,13.437221 6.50335306,13.6406325 6.75447017,13.6406325 C6.99824319,13.6406325 7.20915792,13.4374377 7.20915792,13.1867842 L7.20915792,7.1592653 L13.2366769,7.1592653 C13.4871136,7.1592653 13.6905251,6.95569466 13.6905251,6.70457755 C13.6905251,6.46080452 13.4873303,6.2498898 13.2366769,6.2498898 L7.20915792,6.2498898 Z" id="Combined-Shape"></path>
            </g>
        </g>
    </g>
</svg>