<?xml version="1.0" encoding="UTF-8"?>
<svg width="15px" height="16px" viewBox="0 0 15 16" version="1.1" xmlns="http://www.w3.org/2000/svg" xmlns:xlink="http://www.w3.org/1999/xlink">
    <!-- Generator: Sketch 40.3 (33839) - http://www.bohemiancoding.com/sketch -->
    <title>切图/常用/赛事坐标-蓝色</title>
    <desc>Created with Sketch.</desc>
    <defs></defs>
    <g id="切图" stroke="none" stroke-width="1" fill="none" fill-rule="evenodd">
        <g id="中帆联/切图/" transform="translate(-100.000000, -128.000000)" stroke="#46B5E8">
            <g id="切图/常用/赛事坐标-蓝色" transform="translate(101.000000, 129.000000)">
                <path d="M7.50279554,5.25746215 C7.7536433,5.01356732 7.89963885,4.67087965 7.89963885,4.32614926 C7.89963885,3.98130282 7.7536433,3.63861514 7.50279554,3.39476674 C7.25199554,3.15094155 6.89947147,3.00895005 6.54467889,3.00895005 C6.19000571,3.00895005 5.83743388,3.15094155 5.58658612,3.39476674 C5.33578612,3.63861514 5.18971894,3.9812796 5.18971894,4.32614926 C5.18971894,4.67087965 5.33581,5.01356732 5.58658612,5.25746215 C5.83743388,5.5012177 6.19000571,5.64325563 6.54467889,5.64325563 C6.89947147,5.64325563 7.25199554,5.5012177 7.50279554,5.25746215 L7.50279554,5.25746215 Z" id="Stroke-1"></path>
                <path d="M6.4497603,0.0115993382 C8.90682662,0.0115993382 10.9058003,1.92044141 10.9058003,4.26695712 C10.9058003,5.52747116 9.35598857,8.32080629 6.82451562,11.6508633 C6.73730991,11.7654639 6.59816761,11.8331983 6.44983193,11.8331983 C6.30159177,11.8331983 6.16237783,11.7654871 6.07529152,11.6508633 C3.54369917,8.32080629 1.99379195,5.52763365 1.99379195,4.26695712 C1.99381582,1.92046462 3.992885,0.0115993382 6.4497603,0.0115993382 L6.4497603,0.0115993382 Z" id="Stroke-3"></path>
                <path d="M2.83467995,10.588232 C1.1310643,10.9306876 0.0119322822,11.5083796 0.0119322822,12.1633697 C0.0119322822,13.2146221 2.89425779,14.0668032 6.44980089,14.0668032 C10.0053201,14.0668032 12.8876456,13.2146221 12.8876456,12.1633697 C12.8876456,11.5083796 11.7685375,10.9306876 10.0649218,10.588232" id="Stroke-5"></path>
            </g>
        </g>
    </g>
</svg>