<?xml version="1.0" encoding="UTF-8"?>
<svg width="12px" height="13px" viewBox="0 0 12 13" version="1.1" xmlns="http://www.w3.org/2000/svg" xmlns:xlink="http://www.w3.org/1999/xlink">
    <!-- Generator: Sketch 40.3 (33839) - http://www.bohemiancoding.com/sketch -->
    <title>切图/赛事/小图标-坐标位置</title>
    <desc>Created with Sketch.</desc>
    <defs></defs>
    <g id="切图" stroke="none" stroke-width="1" fill="none" fill-rule="evenodd">
        <g id="中帆联/切图/" transform="translate(-120.000000, -257.000000)" stroke="#9B9B9B" stroke-width="0.8">
            <g id="切图/赛事/小图标-坐标位置" transform="translate(121.000000, 258.000000)">
                <path d="M5.76960136,4.20467265 C5.96250167,4.00961696 6.0747713,3.73555136 6.0747713,3.4598521 C6.0747713,3.18406002 5.96250167,2.90999443 5.76960136,2.71497587 C5.57673778,2.51997587 5.30564904,2.4064177 5.03281584,2.4064177 C4.76007445,2.4064177 4.48894899,2.51997587 4.29604868,2.71497587 C4.1031851,2.90999443 3.99086038,3.18404146 3.99086038,3.4598521 C3.99086038,3.73555136 4.10320346,4.00961696 4.29604868,4.20467265 C4.48894899,4.39961696 4.76007445,4.51321225 5.03281584,4.51321225 C5.30564904,4.51321225 5.57673778,4.39961696 5.76960136,4.20467265 L5.76960136,4.20467265 Z" id="Stroke-1"></path>
                <path d="M4.95982405,0.00927660891 C6.8492922,0.00927660891 8.38649005,1.53587933 8.38649005,3.412513 C8.38649005,4.42061324 7.19469485,6.6545922 5.24800848,9.31781621 C5.18094785,9.40946844 5.07394832,9.46363923 4.95987914,9.46363923 C4.84588341,9.46363923 4.73882879,9.409487 4.67185998,9.31781621 C2.7250818,6.6545922 1.53321314,4.42074319 1.53321314,3.412513 C1.5332315,1.5358979 3.0705028,0.00927660891 4.95982405,0.00927660891 L4.95982405,0.00927660891 Z" id="Stroke-3"></path>
                <path d="M2.17985059,8.46797339 C0.86978115,8.74185334 0.00917584802,9.20386448 0.00917584802,9.72769493 C0.00917584802,10.5684375 2.22566556,11.2499722 4.95985527,11.2499722 C7.69402661,11.2499722 9.91051633,10.5684375 9.91051633,9.72769493 C9.91051633,9.20386448 9.04992939,8.74185334 7.73985994,8.46797339" id="Stroke-5"></path>
            </g>
        </g>
    </g>
</svg>