<?xml version="1.0" encoding="UTF-8"?>
<svg width="27px" height="12px" viewBox="0 0 27 12" version="1.1" xmlns="http://www.w3.org/2000/svg" xmlns:xlink="http://www.w3.org/1999/xlink">
    <!-- Generator: Sketch 40.3 (33839) - http://www.bohemiancoding.com/sketch -->
    <title>切图/赛事/轨迹-船-eqm工作船@1x</title>
    <desc>Created with Sketch.</desc>
    <defs></defs>
    <g id="素材和切图" stroke="none" stroke-width="1" fill="none" fill-rule="evenodd">
        <g id="中帆联/切图/" transform="translate(-243.000000, -1305.000000)">
            <g id="切图/赛事/轨迹-船-eqm工作船" transform="translate(243.000000, 1303.305854)">
                <path d="M0.521353545,4.60954132 C3.44606713,3.11577405 7.64584305,2.17939877 12.3121836,2.17939877 C18.1340764,2.17939877 23.2297172,3.6369556 26.0289524,5.81605978 C23.597237,8.42565531 18.8518599,10.7137045 13.1588263,11.7175399 C8.55566458,12.5292016 4.24753545,12.3400173 1.08702564,11.3812077 C0.755797147,10.4111758 0.527341558,9.38938813 0.415697387,8.3271648 C0.282325963,7.05822046 0.324010618,5.81106165 0.521353545,4.60954132 Z" id="Oval-69-Copy-12" fill="#FFFFFF" transform="translate(13.442778, 7.186395) rotate(-176.000000) translate(-13.442778, -7.186395) "></path>
                <text id="eqm" font-family="PingFangSC-Regular, PingFang SC" font-size="9" font-weight="normal" fill="#00B3FF">
                    <tspan x="7.018" y="10">eqm</tspan>
                </text>
                <path d="M0.998918282,4.33480988 C3.27711708,4.96904912 5.19075212,5.86083425 6.55718597,6.92455397 C5.3456603,8.22470278 3.55983364,9.44503682 1.36863798,10.4665043 C1.14311368,9.68653577 0.983027747,8.87604123 0.895211926,8.04052951 C0.762280897,6.77577526 0.803251778,5.5326629 0.998918282,4.33480988 Z" id="Oval-69-Copy-15" fill="#00B3FF" transform="translate(3.687540, 7.400657) rotate(-176.000000) translate(-3.687540, -7.400657) "></path>
            </g>
        </g>
    </g>
</svg>