<?xml version="1.0" encoding="UTF-8"?>
<svg width="24px" height="19px" viewBox="0 0 24 19" version="1.1" xmlns="http://www.w3.org/2000/svg" xmlns:xlink="http://www.w3.org/1999/xlink">
    <!-- Generator: Sketch 40.3 (33839) - http://www.bohemiancoding.com/sketch -->
    <title>切图/赛事/奖杯-冠军</title>
    <desc>Created with Sketch.</desc>
    <defs></defs>
    <g id="切图" stroke="none" stroke-width="1" fill="none" fill-rule="evenodd">
        <g id="中帆联/切图/" transform="translate(-337.000000, -257.000000)">
            <g id="切图/赛事/奖杯-冠军" transform="translate(337.000000, 257.000000)">
                <path d="M22.6361368,1.2141984 L18.4170301,1.2141984 L18.4170301,0.632678007 C18.4170301,0.283245522 18.1333245,0 17.7833245,0 L6.26227409,0 C5.91227409,0 5.62856855,0.283245522 5.62856855,0.632678007 L5.62856855,1.2141984 L1.40975135,1.2141984 C1.05975135,1.2141984 0.776045805,1.49744393 0.776045805,1.84687641 L0.776045805,4.71199157 C0.776045805,5.49525215 1.08146351,6.2316905 1.63642628,6.7854644 C2.19109957,7.33952732 2.92873398,7.6444498 3.71326665,7.6444498 L5.7909755,7.6444498 C6.39746847,10.2777661 8.64047922,12.2940117 11.3892385,12.5654072 L11.3892385,15.4131808 L9.69221619,15.4131808 C8.7116951,15.4131808 7.91442463,16.2094475 7.91442463,17.1880897 L7.91442463,18.2282944 C7.91442463,18.5777269 8.19813017,18.8609725 8.54784068,18.8609725 L15.497758,18.8609725 C15.847758,18.8609725 16.1314635,18.5777269 16.1314635,18.2282944 L16.1314635,17.1880897 C16.1314635,16.2094475 15.3339035,15.4131808 14.3536719,15.4131808 L12.6566496,15.4131808 L12.6566496,12.5651182 C15.4054089,12.2940117 17.6481302,10.2777661 18.2549126,7.6444498 L20.332332,7.6444498 C21.952059,7.6444498 23.2698423,6.32880325 23.2698423,4.71170254 L23.2698423,1.84687641 C23.2698423,1.49744393 22.9861368,1.2141984 22.6361368,1.2141984 Z M5.90077699,6.20723167 L3.9843171,6.20723167 C3.53849411,6.20723167 3.1190152,6.03381605 2.80375466,5.71877766 C2.48820461,5.4040283 2.31450734,4.98522956 2.31450734,4.53984043 L2.31450734,2.30769231 L5.90077699,2.30769231 L5.90077699,6.20723167 Z M18.4683535,2.30769231 L22.0549126,2.30769231 L22.0549126,4.53984043 C22.0549126,5.45923227 21.3056984,6.20723167 20.3848134,6.20723167 L18.4683535,6.20723167 L18.4683535,2.30769231 Z" id="Combined-Shape" fill="#956D00"></path>
                <path d="M14.9200905,16.6633991 L14.9200905,17.0709258 L9.23758427,17.0709258 L9.23758427,16.6633991 C9.23758427,16.3824658 9.46657517,16.1538462 9.74796475,16.1538462 L14.40971,16.1538462 C14.6910996,16.1538462 14.9200905,16.3824658 14.9200905,16.6633991" id="Fill-84" fill="#F4D22C"></path>
                <path d="M17.1835313,5.71648954 C17.1835313,8.53882884 14.88349,10.8351407 12.0565669,10.8351407 C9.22964382,10.8351407 6.92989196,8.53882884 6.92989196,5.71648954 L6.92989196,0.769230769 L17.1835313,0.769230769 L17.1835313,5.71648954 Z" id="Fill-86" fill="#F4D22C"></path>
            </g>
        </g>
    </g>
</svg>