<?xml version="1.0" encoding="UTF-8"?>
<svg width="20px" height="32px" viewBox="0 0 20 32" version="1.1" xmlns="http://www.w3.org/2000/svg" xmlns:xlink="http://www.w3.org/1999/xlink">
    <!-- Generator: Sketch 40.3 (33839) - http://www.bohemiancoding.com/sketch -->
    <title>切图/常用/回到顶部@1x</title>
    <desc>Created with Sketch.</desc>
    <defs></defs>
    <g id="素材和切图" stroke="none" stroke-width="1" fill="none" fill-rule="evenodd" stroke-linecap="round">
        <g id="中帆联/切图/" transform="translate(-788.000000, -147.000000)" stroke="#FFFFFF">
            <g id="切图/常用/回到顶部" transform="translate(789.000000, 148.000000)">
                <path d="M9,0 C9,0 14.592375,3.89 14.592375,12.8911111 C14.592375,12.8911111 15.634125,13.7788889 16.443,14.5777778 C17.2485,15.3733333 17.962875,16.1244444 17.202375,19.1244444 C16.443,22.1244444 15.969375,23.0622222 14.68575,21.9366667 C13.4055,20.8122222 13.311,20.7655556 12.835125,20.39 C12.360375,20.0155556 11.74275,19.4988889 11.269125,20.4833333 C10.794375,21.4677778 9,21.3744444 9,21.3744444" id="Stroke-1044-Copy"></path>
                <path d="M8.52453119,0 C8.52453119,0 2.93440619,3.89 2.93440619,12.8911111 C2.93440619,12.8911111 1.89040619,13.7788889 1.08378119,14.5777778 C0.27603119,15.3733333 -0.43609381,16.1244444 0.32328119,19.1244444 C1.08378119,22.1244444 1.55740619,23.0622222 2.84103119,21.9366667 C4.12015619,20.8122222 4.21465619,20.7655556 4.68940619,20.39 C5.16528119,20.0155556 5.78178119,19.4988889 6.25653119,20.4833333 C6.73128119,21.4677778 8.52453119,21.3744444 8.52453119,21.3744444" id="Stroke-1046-Copy"></path>
                <path d="M11.496375,9.00888889 C11.496375,10.3044444 10.43325,11.3522222 9.122625,11.3522222 C7.812,11.3522222 6.75,10.3044444 6.75,9.00888889 C6.75,7.71444444 7.812,6.66666667 9.122625,6.66666667 C10.43325,6.66666667 11.496375,7.71444444 11.496375,9.00888889 L11.496375,9.00888889 Z" id="Stroke-1048-Copy"></path>
                <path d="M9.509625,29.5146914 C8.98425,29.5146914 8.785125,29.0880247 8.2305,27.5291358 C7.675875,25.9702469 7.675875,25.7058025 6.712875,26.9635802 C5.74875,28.2191358 5.625,26.1724691 5.625,24.2069136 C5.625,22.241358 7.002,24.2069136 8.355375,24.2069136 L9.44325,24.2069136" id="Stroke-1050-Copy" stroke-linejoin="round"></path>
                <path d="M9,29.5146914 C9.525375,29.5146914 9.72675,29.0880247 10.28025,27.5291358 C10.83375,25.9702469 10.83375,25.7058025 11.797875,26.9635802 C12.762,28.2191358 12.88575,26.1724691 12.88575,24.2069136 C12.88575,22.241358 11.50875,24.2069136 10.157625,24.2069136 L9.066375,24.2069136" id="Stroke-1052-Copy" stroke-linejoin="round"></path>
            </g>
        </g>
    </g>
</svg>