<?xml version="1.0" encoding="UTF-8"?>
<svg width="36px" height="28px" viewBox="0 0 36 28" version="1.1" xmlns="http://www.w3.org/2000/svg" xmlns:xlink="http://www.w3.org/1999/xlink">
    <!-- Generator: Sketch 40.3 (33839) - http://www.bohemiancoding.com/sketch -->
    <title>切图/赛事/主页菜单-航海商城</title>
    <desc>Created with Sketch.</desc>
    <defs></defs>
    <g id="切图" stroke="none" stroke-width="1" fill="none" fill-rule="evenodd">
        <g id="中帆联/切图/" transform="translate(-705.000000, -766.000000)" stroke="#E3605C">
            <g id="切图/赛事/主页菜单-航海商城" transform="translate(706.000000, 767.262147)">
                <path d="M1.66527641,2.66839944 C1.66527641,2.66839944 1.05470579,1.99779055 0.308138006,1.17689721 C-0.437013144,0.357421658 0.21605659,-0.152978342 1.76302438,0.0412572134 L3.46582225,0.258177213 C5.01420668,0.452412769 6.66317234,1.82907499 7.13066261,3.3149061 L11.4613224,17.0304883 C11.9302293,18.5177372 13.5891115,19.7256839 15.148829,19.7157594 L26.6930053,19.6434528 C28.2527228,19.6335283 30.0660184,18.468115 30.723338,17.0545905 L33.9617706,10.0947194 C34.6205069,8.68119499 33.8966053,7.33855944 32.355304,7.11313277 L13.3525331,4.3229461" id="Stroke-54-Copy" stroke-linecap="round"></path>
                <path d="M17.4246372,23.606 C17.4246372,24.8975956 16.3791589,25.9453333 15.0886025,25.9453333 C13.7966294,25.9453333 12.7497345,24.8975956 12.7497345,23.606 C12.7497345,22.3144044 13.7966294,21.2666667 15.0886025,21.2666667 C16.3791589,21.2666667 17.4246372,22.3144044 17.4246372,23.606 L17.4246372,23.606 Z" id="Stroke-56-Copy"></path>
                <path d="M28.7563179,23.606 C28.7563179,24.8975956 27.7108396,25.9453333 26.4202832,25.9453333 C25.1283101,25.9453333 24.0828319,24.8975956 24.0828319,23.606 C24.0828319,22.3144044 25.1283101,21.2666667 26.4202832,21.2666667 C27.7108396,21.2666667 28.7563179,22.3144044 28.7563179,23.606 L28.7563179,23.606 Z" id="Stroke-58-Copy"></path>
            </g>
        </g>
    </g>
</svg>