<?xml version="1.0" encoding="UTF-8"?>
<svg width="24px" height="24px" viewBox="0 0 24 24" version="1.1" xmlns="http://www.w3.org/2000/svg" xmlns:xlink="http://www.w3.org/1999/xlink">
    <!-- Generator: Sketch 40.3 (33839) - http://www.bohemiancoding.com/sketch -->
    <title>切图/常用/创建</title>
    <desc>Created with Sketch.</desc>
    <defs></defs>
    <g id="切图" stroke="none" stroke-width="1" fill="none" fill-rule="evenodd">
        <g id="中帆联/切图/" transform="translate(-172.000000, -127.000000)" fill="#FFFFFF">
            <g id="切图/常用/创建" transform="translate(172.000000, 127.000000)">
                <path d="M12.3585564,10.7140968 L12.3585564,0.778025578 C12.3585564,0.348705383 12.0095782,0 11.5790917,0 C11.145604,0 10.799627,0.348333916 10.799627,0.778025578 L10.799627,10.7140968 L0.863555787,10.7140968 C0.434235593,10.7140968 0.0855302098,11.063075 0.0855302098,11.4935615 C0.0855302098,11.9270493 0.433864126,12.2730262 0.863555787,12.2730262 L10.799627,12.2730262 L10.799627,22.6059158 C10.799627,23.035236 11.1486052,23.3839414 11.5790917,23.3839414 C12.0125795,23.3839414 12.3585564,23.0356075 12.3585564,22.6059158 L12.3585564,12.2730262 L22.691446,12.2730262 C23.1207662,12.2730262 23.4694716,11.924048 23.4694716,11.4935615 C23.4694716,11.0600738 23.1211377,10.7140968 22.691446,10.7140968 L12.3585564,10.7140968 Z" id="Combined-Shape"></path>
            </g>
        </g>
    </g>
</svg>