<?xml version="1.0" encoding="UTF-8"?>
<svg width="37px" height="29px" viewBox="0 0 37 29" version="1.1" xmlns="http://www.w3.org/2000/svg" xmlns:xlink="http://www.w3.org/1999/xlink">
    <!-- Generator: Sketch 40.3 (33839) - http://www.bohemiancoding.com/sketch -->
    <title>切图/赛事/主页菜单-在线答疑</title>
    <desc>Created with Sketch.</desc>
    <defs></defs>
    <g id="切图" stroke="none" stroke-width="1" fill="none" fill-rule="evenodd">
        <g id="中帆联/切图/" transform="translate(-776.000000, -765.000000)">
            <g id="切图/赛事/主页菜单-在线答疑" transform="translate(777.000000, 766.262147)">
                <path d="M13.1244629,21.0981967 L5.75045842,18.2693345" id="Stroke-1148-Copy" stroke="#D87724" stroke-linecap="round"></path>
                <path d="M18.1839079,1.92308784 C25.0509137,1.92308784 30.6183159,7.50869647 30.6183159,14.3971971 C30.6183159,21.2876208 25.0509137,26.8713064 18.1839079,26.8713064 C11.3178606,26.8713064 5.75045842,21.2876208 5.75045842,14.3971971 C5.75045842,7.50869647 11.3178606,1.92308784 18.1839079,1.92308784 L18.1839079,1.92308784 Z" id="Stroke-1192-Copy" stroke="#D87724"></path>
                <path d="M12.465077,11.538527 C11.4012422,11.538527 10.5425071,12.4000704 10.5425071,13.4683457 C10.5425071,14.5337363 11.4012422,15.3981643 12.465077,15.3981643 C13.5289118,15.3981643 14.3886054,14.5337363 14.3886054,13.4683457 C14.3886054,12.4000704 13.5289118,11.538527 12.465077,11.538527" id="Fill-2148-Copy" fill="#D87724"></path>
                <path d="M14.3818965,19.2308784 C13.3180617,19.2308784 12.4593266,20.0924217 12.4593266,21.160697 C12.4593266,22.2270492 13.3180617,23.0905157 14.3818965,23.0905157 C15.4457313,23.0905157 16.3054249,22.2270492 16.3054249,21.160697 C16.3054249,20.0924217 15.4457313,19.2308784 14.3818965,19.2308784" id="Fill-2150-Copy" fill="#D87724"></path>
                <path d="M23.0066257,11.538527 C21.9427909,11.538527 21.0850142,12.4000704 21.0850142,13.4683457 C21.0850142,14.5337363 21.9427909,15.3981643 23.0066257,15.3981643 C24.0704605,15.3981643 24.9301541,14.5337363 24.9301541,13.4683457 C24.9301541,12.4000704 24.0704605,11.538527 23.0066257,11.538527" id="Fill-2152-Copy" fill="#D87724"></path>
                <path d="M3.83363895,9.75678615 C6.03606452,4.03656137 11.3878245,0 17.6404896,0 C23.8030642,0 29.0915692,3.92213765 31.3505409,9.51255399" id="Stroke-2510-Copy" stroke="#D87724" stroke-linecap="round"></path>
                <path d="M31.514429,18.5231968 C33.9842509,18.0145401 35.5828783,15.6289496 35.0845052,13.1962435 C34.5861322,10.7625759 32.1805237,9.20295162 29.7107019,9.71160835 L31.514429,18.5231968 L31.514429,18.5231968 Z" id="Stroke-2512-Copy" stroke="#D87724" stroke-linecap="round" stroke-linejoin="round"></path>
                <path d="M3.66172694,18.5231968 C1.19190505,18.0145401 -0.406722391,15.6289496 0.0906922624,13.1962435 C0.590023735,10.7625759 2.99563218,9.20295162 5.46545407,9.71160835 L3.66172694,18.5231968 L3.66172694,18.5231968 Z" id="Stroke-2514-Copy" stroke="#D87724" stroke-linecap="round" stroke-linejoin="round"></path>
                <path d="M9.2015054,25.1251426 C8.68300573,27.0097687 5.23081386,27.1703465 5.23081386,27.1703465 C0.529814101,21.0808889 4.31744938,14.1346956 4.31744938,14.1346956 C13.925507,14.1346956 18.7041379,2.88463176 18.7041379,2.88463176 C18.7041379,2.88463176 22.1898742,11.8366056 28.6792665,11.8366056 C28.6792665,11.8366056 32.7735929,20.1712683 28.9399539,26.5434199 C28.9399539,26.5434199 25.7081963,26.0482248 25.7081963,23.7857119" id="Stroke-3746-Copy" stroke="#D87724" stroke-linecap="round" stroke-linejoin="round"></path>
            </g>
        </g>
    </g>
</svg>