<?xml version="1.0" encoding="UTF-8"?>
<svg width="37px" height="34px" viewBox="0 0 37 34" version="1.1" xmlns="http://www.w3.org/2000/svg" xmlns:xlink="http://www.w3.org/1999/xlink">
    <!-- Generator: Sketch 40.3 (33839) - http://www.bohemiancoding.com/sketch -->
    <title>切图/赛事/主页菜单-吃喝玩乐@1x</title>
    <desc>Created with Sketch.</desc>
    <defs></defs>
    <g id="素材和切图" stroke="none" stroke-width="1" fill="none" fill-rule="evenodd">
        <g id="中帆联/切图/" transform="translate(-35.000000, -842.000000)" stroke="#D17323">
            <path d="M69.7538308,846.184728 C69.3061543,845.342057 68.79335,844.665697 68.2308091,844.175504 C67.5354474,843.569212 66.7818934,843.262147 65.9895288,843.262147 C65.1983993,843.262147 64.4441802,843.569212 63.7493886,844.175504 C63.1863251,844.665649 62.6735683,845.342009 62.2264143,846.184728 C61.3652641,847.807508 60.9802927,849.580258 60.9802927,850.618027 C60.9802927,852.819024 62.4595158,854.979073 64.4207133,855.739373 L64.4207133,873.85792 C64.4207133,874.710805 65.1245307,875.403934 65.9895763,875.403934 C66.8552394,875.403934 67.5595794,874.710188 67.5595794,873.85792 L67.5595794,855.73942 C69.5202068,854.979073 71,852.819547 71,850.618075 C70.9999525,849.580305 70.6144586,847.807508 69.7538308,846.184728 L69.7538308,846.184728 Z M49.0151592,868.64304 C44.6776754,868.64304 41.14942,865.167419 41.14942,860.895443 C41.14942,856.623562 44.6776754,853.147941 49.0151592,853.147941 C53.3520729,853.147941 56.8798532,856.623562 56.8798532,860.895443 C56.8798532,865.167419 53.3520729,868.64304 49.0151592,868.64304 L49.0151592,868.64304 Z M49.0151592,848.075335 C41.8385588,848.075335 36,853.826486 36,860.895491 C36,867.963972 41.8386063,873.715076 49.0151592,873.715076 C56.1911895,873.715076 62.0297958,867.963972 62.0297958,860.895491 C62.0297958,853.826486 56.1911895,848.075335 49.0151592,848.075335 L49.0151592,848.075335 Z" id="切图/赛事/主页菜单-吃喝玩乐"></path>
        </g>
    </g>
</svg>