<?xml version="1.0" encoding="UTF-8"?>
<svg width="94px" height="50px" viewBox="0 0 94 50" version="1.1" xmlns="http://www.w3.org/2000/svg" xmlns:xlink="http://www.w3.org/1999/xlink">
    <!-- Generator: Sketch 40.3 (33839) - http://www.bohemiancoding.com/sketch -->
    <title>切图/演示数据/logo-race@1x</title>
    <desc>Created with Sketch.</desc>
    <defs></defs>
    <g id="素材和切图" stroke="none" stroke-width="1" fill="none" fill-rule="evenodd" opacity="0.544384058">
        <g id="中帆联/切图/" transform="translate(-132.000000, -1680.000000)" fill="#FFFDFC">
            <g id="切图/演示数据/logo-race" transform="translate(132.000000, 1680.000000)">
                <path d="M4.79087962,22.7706941 C4.89281323,22.8732648 4.89281323,22.9758355 4.89281323,23.0784062 C4.79087962,23.0784062 4.68894602,23.1809769 4.58701241,23.1809769 C4.28121158,23.1809769 3.97541075,23.2835476 3.66960993,23.2835476 C3.3638091,23.2835476 2.85414105,23.4886889 2.34447301,23.6938303 C2.03867218,23.796401 1.83480496,23.8989717 1.73287135,23.8989717 C1.63093774,23.8989717 1.52900414,23.8989717 1.22320331,24.0015424 C0.917402481,24.1041131 0.713535263,24.2066838 0.611601654,24.3092545 C0.509668045,24.4118252 0.305800827,24.3092545 0.203867218,24.2066838 C0,24.1041131 0,24.0015424 0,23.8989717 C0,23.796401 0.101933609,23.796401 0.101933609,23.796401 C0.203867218,23.5912596 0.305800827,23.5912596 0.407734436,23.4886889 C0.509668045,23.3861183 0.713535263,23.4886889 0.815468872,23.5912596 C0.917402481,23.5912596 1.01933609,23.6938303 1.32513692,23.5912596 C1.63093774,23.4886889 1.83480496,23.4886889 2.03867218,23.3861183 C2.2425394,23.2835476 2.54834023,23.1809769 3.05800827,23.0784062 C3.46574271,22.9758355 3.77154353,22.8732648 3.97541075,22.8732648 C4.07734436,22.7706941 4.17927797,22.7706941 4.28121158,22.6681234 C4.38314519,22.6681234 4.58701241,22.6681234 4.79087962,22.7706941 L4.79087962,22.7706941 Z M5.81021571,21.9501285 C5.81021571,22.1552699 5.70828211,22.2578406 5.70828211,22.3604113 C5.70828211,22.462982 5.6063485,22.7706941 5.50441489,23.3861183 C5.50441489,23.796401 5.50441489,24.1041131 5.40248128,24.5143959 C5.40248128,24.9246787 5.50441489,25.5401028 5.70828211,26.4632391 C5.81021571,26.7709512 5.81021571,27.0786632 5.81021571,27.1812339 C5.81021571,27.2838046 5.70828211,27.488946 5.70828211,27.488946 C5.6063485,27.6940874 5.50441489,27.7966581 5.40248128,27.7966581 L5.09668045,27.7966581 C4.99474684,27.7966581 4.89281323,27.7966581 4.79087962,27.6940874 C4.68894602,27.6940874 4.4850788,27.5915167 4.07734436,27.3863753 C3.66960993,27.1812339 3.46574271,27.0786632 3.46574271,26.8735219 C3.46574271,26.7709512 3.3638091,26.5658098 3.15994188,26.3606684 C2.85414105,26.155527 2.65027383,26.0529563 2.44640662,26.0529563 C2.2425394,26.0529563 2.03867218,26.0529563 1.93673857,25.8478149 C1.83480496,25.9503856 1.83480496,25.9503856 1.73287135,26.0529563 L1.42707053,26.0529563 C1.32513692,25.9503856 1.22320331,25.8478149 1.1212697,25.7452442 C1.1212697,25.6426735 1.01933609,25.5401028 0.917402481,25.4375321 C0.815468872,25.3349614 0.815468872,25.2323907 0.815468872,25.1298201 C0.917402481,25.2323907 1.01933609,25.1298201 1.01933609,25.1298201 C1.01933609,24.9246787 1.1212697,24.822108 1.22320331,24.7195373 C1.22320331,24.6169666 1.42707053,24.4118252 1.52900414,24.3092545 C1.83480496,24.1041131 2.03867218,24.1041131 1.93673857,24.2066838 C1.93673857,24.3092545 2.03867218,24.3092545 2.34447301,24.3092545 C2.65027383,24.2066838 2.85414105,24.1041131 3.05800827,24.1041131 C3.26187549,24.1041131 3.46574271,24.1041131 3.66960993,24.2066838 C3.87347714,24.3092545 3.97541075,24.4118252 4.07734436,24.5143959 L4.07734436,24.7195373 C4.07734436,24.9246787 3.97541075,25.0272494 3.87347714,25.1298201 C3.77154353,25.2323907 3.77154353,25.3349614 3.87347714,25.4375321 C4.07734436,25.6426735 3.97541075,25.8478149 3.77154353,25.9503856 C3.56767632,26.0529563 3.3638091,26.155527 3.15994188,26.3606684 C3.15994188,26.5658098 3.3638091,26.6683805 3.66960993,26.7709512 C3.97541075,26.7709512 4.28121158,26.8735219 4.58701241,26.8735219 C4.99474684,26.7709512 5.09668045,26.6683805 5.09668045,26.4632391 C5.09668045,26.2580977 4.99474684,25.9503856 4.99474684,25.7452442 C4.99474684,25.4375321 4.89281323,25.0272494 4.89281323,24.5143959 C4.89281323,24.1041131 4.89281323,23.3861183 4.99474684,22.3604113 C4.99474684,22.1552699 4.89281323,22.0526992 4.79087962,21.9501285 L4.58701241,21.9501285 C4.17927797,21.9501285 3.97541075,22.0526992 3.77154353,22.2578406 C3.66960993,22.3604113 3.3638091,22.462982 2.95607466,22.5655527 C2.65027383,22.6681234 2.54834023,22.6681234 2.54834023,22.6681234 L2.2425394,22.6681234 C1.93673857,22.7706941 1.73287135,22.7706941 1.63093774,22.5655527 C1.52900414,22.462982 1.42707053,22.2578406 1.52900414,22.1552699 C1.63093774,22.0526992 1.73287135,21.9501285 1.83480496,21.8475578 C2.03867218,21.8475578 2.2425394,21.8475578 2.54834023,21.7449871 C2.85414105,21.7449871 3.05800827,21.7449871 3.3638091,21.6424165 C3.66960993,21.6424165 3.87347714,21.5398458 3.97541075,21.3347044 C4.07734436,21.2321337 4.28121158,21.2321337 4.4850788,21.2321337 C4.68894602,21.2321337 4.89281323,21.3347044 4.99474684,21.3347044 C5.30054767,21.3347044 5.50441489,21.4372751 5.6063485,21.5398458 C5.70828211,21.6424165 5.70828211,21.8475578 5.81021571,21.9501285 L5.81021571,21.9501285 Z M2.75220744,25.3349614 C3.05800827,24.822108 3.15994188,24.5143959 2.95607466,24.5143959 C2.75220744,24.5143959 2.54834023,24.7195373 2.34447301,24.9246787 C2.14060579,25.2323907 2.03867218,25.4375321 2.03867218,25.6426735 C2.03867218,25.6426735 2.14060579,25.6426735 2.2425394,25.5401028 C2.34447301,25.5401028 2.44640662,25.4375321 2.75220744,25.3349614 L2.75220744,25.3349614 Z" id="Shape"></path>
                <path d="M13.55717,25.9503856 C13.55717,27.0786632 13.3533028,27.6940874 13.2513692,27.8992288 C13.047502,28.1043702 12.9455683,28.1043702 12.7417011,27.6940874 C12.6397675,27.3863753 12.4359003,27.2838046 12.3339667,27.2838046 C12.2320331,27.2838046 12.1300995,27.0786632 12.0281659,26.8735219 C12.1300995,26.7709512 12.3339667,26.6683805 12.5378339,26.8735219 C12.8436347,26.9760925 12.9455683,26.7709512 13.1494356,26.2580977 C13.3533028,25.1298201 13.3533028,24.5143959 13.1494356,24.3092545 C12.9455683,24.1041131 12.5378339,24.2066838 11.9262323,24.4118252 L11.8242986,24.822108 C12.1300995,24.822108 12.3339667,24.9246787 12.3339667,25.0272494 C12.3339667,25.1298201 12.1300995,25.2323907 11.722365,25.4375321 C11.5184978,25.5401028 11.4165642,25.5401028 11.4165642,25.6426735 L11.4165642,25.7452442 C11.9262323,25.7452442 12.1300995,25.8478149 12.2320331,25.9503856 C12.3339667,26.0529563 12.2320331,26.155527 11.8242986,26.3606684 C11.722365,26.3606684 11.5184978,26.4632391 11.4165642,26.5658098 C11.3146306,26.6683805 11.212697,26.8735219 11.212697,27.2838046 C11.1107634,27.5915167 11.0088298,27.6940874 10.9068962,27.5915167 C10.7030289,27.488946 10.6010953,27.2838046 10.3972281,26.8735219 C9.88756008,27.0786632 9.58175925,27.0786632 9.47982564,26.9760925 C9.27595842,26.6683805 9.17402481,26.5658098 9.27595842,26.5658098 C9.27595842,26.3606684 9.37789203,26.2580977 9.58175925,26.2580977 C9.78562647,26.2580977 9.98949369,26.2580977 10.0914273,26.0529563 L10.0914273,25.9503856 C9.78562647,26.0529563 9.58175925,26.0529563 9.47982564,26.0529563 C9.37789203,26.0529563 9.27595842,25.9503856 9.27595842,25.7452442 C9.17402481,25.5401028 9.27595842,25.5401028 9.37789203,25.5401028 C9.47982564,25.5401028 9.68369286,25.5401028 9.68369286,25.3349614 C9.68369286,25.1298201 9.58175925,25.0272494 9.47982564,25.0272494 C9.37789203,25.0272494 9.27595842,25.1298201 9.0720912,25.3349614 C8.86822399,25.4375321 8.66435677,25.6426735 8.66435677,25.7452442 C8.66435677,25.9503856 8.56242316,26.0529563 8.66435677,26.0529563 C8.66435677,26.155527 8.66435677,26.3606684 8.76629038,26.5658098 C8.76629038,26.7709512 8.86822399,26.9760925 8.86822399,27.1812339 C8.76629038,27.488946 8.66435677,27.5915167 8.35855594,27.2838046 C8.05275511,26.9760925 7.8488879,26.6683805 7.8488879,26.155527 C7.9508215,25.0272494 8.15468872,24.5143959 8.46048955,24.5143959 C8.76629038,24.5143959 9.0720912,24.4118252 9.37789203,24.2066838 C9.37789203,23.8989717 9.47982564,23.796401 9.68369286,23.8989717 C9.88756008,24.0015424 10.0914273,23.796401 10.0914273,23.4886889 C9.58175925,23.3861183 9.27595842,23.2835476 9.17402481,23.0784062 C9.0720912,22.9758355 9.0720912,22.7706941 9.37789203,22.6681234 C9.58175925,22.6681234 9.78562647,22.5655527 9.98949369,22.462982 C10.1933609,22.3604113 10.3972281,22.2578406 10.3972281,22.2578406 C10.4991617,21.7449871 10.6010953,21.4372751 10.7030289,21.2321337 C10.7030289,21.0269923 10.9068962,20.9244216 11.1107634,20.9244216 C11.212697,20.9244216 11.3146306,21.0269923 11.4165642,21.3347044 C11.4165642,21.5398458 11.6204314,21.7449871 11.8242986,21.7449871 C12.2320331,21.8475578 12.4359003,21.9501285 12.4359003,22.1552699 C12.4359003,22.3604113 12.2320331,22.6681234 11.722365,22.9758355 C11.4165642,23.0784062 11.3146306,23.1809769 11.3146306,23.2835476 C11.212697,23.2835476 11.212697,23.5912596 11.0088298,23.8989717 L11.3146306,23.8989717 L11.5184978,23.8989717 L11.5184978,23.3861183 C11.5184978,23.2835476 11.6204314,23.1809769 11.8242986,23.1809769 C12.1300995,23.1809769 12.2320331,23.2835476 12.2320331,23.4886889 C12.1300995,23.6938303 12.2320331,23.6938303 12.4359003,23.5912596 C12.8436347,23.4886889 13.047502,23.4886889 13.2513692,23.5912596 C13.4552364,23.6938303 13.55717,23.796401 13.6591036,23.8989717 C13.8629708,24.1041131 13.9649044,24.3092545 13.8629708,24.6169666 C13.6591036,25.1298201 13.55717,25.4375321 13.55717,25.9503856 L13.55717,25.9503856 Z M9.47982564,24.7195373 L9.27595842,24.5143959 C8.46048955,25.1298201 8.46048955,25.2323907 9.47982564,24.7195373 L9.47982564,24.7195373 Z M9.98949369,24.4118252 C10.6010953,24.2066838 10.8049626,24.1041131 10.3972281,24.1041131 C10.0914273,24.1041131 9.88756008,24.1041131 9.78562647,24.2066838 L9.98949369,24.4118252 L9.98949369,24.4118252 Z M11.0088298,24.5143959 C10.9068962,24.5143959 10.8049626,24.5143959 10.7030289,24.6169666 C10.4991617,24.6169666 10.3972281,24.6169666 10.3972281,24.7195373 L10.2952945,25.2323907 C10.3972281,25.2323907 10.6010953,25.1298201 10.7030289,24.9246787 C10.9068962,24.7195373 11.0088298,24.6169666 11.0088298,24.5143959 L11.0088298,24.5143959 Z" id="Shape"></path>
                <path d="M20.8963899,22.1552699 C21.1002571,22.2578406 21.1002571,22.462982 20.8963899,22.5655527 C20.7944562,22.6681234 20.4886554,22.8732648 20.1828546,22.9758355 C20.080921,23.1809769 19.9789874,23.3861183 19.7751202,23.5912596 C19.5712529,23.8989717 19.4693193,24.0015424 19.4693193,24.1041131 C19.3673857,24.4118252 19.4693193,24.7195373 19.5712529,25.0272494 C19.6731865,25.3349614 19.7751202,25.5401028 19.8770538,25.8478149 C20.080921,25.7452442 20.1828546,25.7452442 20.1828546,25.8478149 C20.1828546,25.9503856 20.080921,26.2580977 20.080921,26.5658098 C19.9789874,26.9760925 19.9789874,27.2838046 19.8770538,27.488946 C19.7751202,27.6940874 19.6731865,27.5915167 19.3673857,27.2838046 C18.9596513,26.7709512 18.8577177,26.2580977 19.0615849,25.8478149 C19.1635185,25.4375321 19.2654521,25.0272494 19.2654521,24.6169666 C18.9596513,24.9246787 18.7557841,25.2323907 18.4499832,25.6426735 C18.1441824,26.0529563 17.9403152,26.155527 17.5325808,26.155527 C17.5325808,26.7709512 17.4306471,27.2838046 17.3287135,27.5915167 C17.2267799,27.8992288 17.1248463,27.8992288 16.9209791,27.6940874 C16.7171119,27.3863753 16.6151783,27.0786632 16.6151783,26.7709512 L16.6151783,26.0529563 C16.3093774,26.3606684 16.0035766,26.5658098 15.7997094,26.7709512 C15.5958422,26.8735219 15.391975,26.8735219 15.1881077,26.6683805 C15.0861741,26.5658098 14.9842405,26.3606684 15.0861741,26.2580977 C15.1881077,26.155527 15.1881077,26.0529563 15.1881077,25.8478149 C15.1881077,25.6426735 15.2900414,25.5401028 15.4939086,25.5401028 C15.6977758,25.5401028 16.0035766,25.0272494 16.4113111,24.2066838 C16.2074438,24.3092545 16.0035766,24.4118252 15.6977758,24.5143959 C15.391975,24.6169666 15.1881077,24.5143959 14.9842405,24.1041131 L14.9842405,23.5912596 C14.9842405,23.4886889 15.0861741,23.3861183 15.2900414,23.3861183 C15.5958422,23.3861183 15.901643,23.2835476 16.2074438,23.1809769 C16.5132447,23.0784062 16.7171119,22.9758355 16.7171119,22.9758355 C16.7171119,22.5655527 16.7171119,22.2578406 16.8190455,21.9501285 C16.9209791,21.6424165 17.0229127,21.5398458 17.3287135,21.6424165 C17.5325808,21.7449871 17.6345144,21.8475578 17.6345144,22.1552699 L17.6345144,22.8732648 C17.9403152,22.9758355 18.0422488,23.0784062 18.0422488,23.1809769 C18.0422488,23.2835476 17.8383816,23.3861183 17.6345144,23.5912596 C17.5325808,23.6938303 17.5325808,23.796401 17.5325808,24.0015424 L17.5325808,24.3092545 C17.8383816,24.1041131 18.0422488,23.8989717 18.1441824,23.5912596 L18.3480496,23.2835476 C18.1441824,22.9758355 18.3480496,22.7706941 18.7557841,22.7706941 C19.1635185,22.6681234 19.6731865,22.5655527 19.9789874,22.462982 C20.080921,22.3604113 20.2847882,22.2578406 20.3867218,22.2578406 C20.590589,22.0526992 20.6925226,22.0526992 20.8963899,22.1552699 L20.8963899,22.1552699 Z M19.0615849,23.1809769 C18.9596513,23.0784062 18.7557841,23.0784062 18.6538505,23.0784062 L18.4499832,23.0784062 C18.3480496,23.3861183 18.1441824,23.6938303 17.8383816,24.1041131 C17.5325808,24.4118252 17.4306471,24.7195373 17.3287135,24.9246787 L17.3287135,25.5401028 C17.4306471,25.3349614 17.4306471,25.2323907 17.4306471,25.2323907 C17.4306471,25.1298201 17.5325808,25.0272494 17.736448,24.9246787 C17.9403152,24.822108 18.246116,24.5143959 18.5519168,24.1041131 C18.8577177,23.5912596 19.0615849,23.2835476 19.0615849,23.1809769 L19.0615849,23.1809769 Z M21.9157259,25.1298201 C22.0176596,25.4375321 21.9157259,25.5401028 21.6099251,25.4375321 C21.3041243,25.3349614 20.9983235,25.2323907 20.8963899,25.1298201 C20.4886554,24.822108 20.2847882,24.7195373 20.1828546,24.5143959 C20.080921,24.4118252 20.1828546,24.3092545 20.6925226,24.3092545 C20.9983235,24.2066838 21.3041243,24.3092545 21.5079915,24.5143959 C21.7118587,24.7195373 21.8137923,24.9246787 21.9157259,25.1298201 L21.9157259,25.1298201 Z" id="Shape"></path>
                <path d="M3.05800827,19.4884319 C2.85414105,19.8987147 2.34447301,19.8987147 2.03867218,19.8987147 L0.101933609,19.8987147 L0.101933609,19.0781491 L1.83480496,19.0781491 C1.93673857,19.0781491 2.2425394,19.0781491 2.2425394,18.6678663 C2.2425394,18.2575835 2.03867218,18.2575835 1.83480496,18.2575835 L1.22320331,18.2575835 C0.917402481,18.2575835 0.509668045,18.2575835 0.203867218,17.9498715 C0.101933609,17.8473008 0,17.5395887 0,17.2318766 C0,16.9241645 0.101933609,16.6164524 0.203867218,16.5138817 C0.407734436,16.103599 0.917402481,16.103599 1.22320331,16.103599 L3.05800827,16.103599 L3.05800827,16.9241645 L1.42707053,16.9241645 C1.32513692,16.9241645 1.1212697,16.9241645 1.1212697,17.2318766 C1.1212697,17.6421594 1.32513692,17.5395887 1.42707053,17.5395887 L2.03867218,17.5395887 C2.34447301,17.5395887 2.75220744,17.5395887 3.05800827,17.9498715 C3.15994188,18.1550129 3.26187549,18.4627249 3.26187549,18.770437 C3.26187549,19.0781491 3.15994188,19.2832905 3.05800827,19.4884319 L3.05800827,19.4884319 Z" id="Shape"></path>
                <polygon id="Shape" points="3.87347714 19.8987147 3.87347714 16.103599 4.89281323 16.103599 4.89281323 19.8987147"></polygon>
                <path d="M7.9508215,19.8987147 L7.9508215,17.5395887 C7.9508215,17.437018 7.9508215,17.2318766 7.8488879,17.1293059 C7.74695429,16.9241645 7.64502068,16.9241645 7.54308707,16.9241645 L6.82955181,16.9241645 L6.82955181,19.8987147 L5.81021571,19.8987147 L5.81021571,16.103599 L8.05275511,16.103599 C8.35855594,16.103599 8.66435677,16.103599 8.86822399,16.5138817 C8.97015759,16.8215938 8.97015759,17.1293059 8.97015759,17.437018 L8.97015759,19.8987147 L7.9508215,19.8987147 L7.9508215,19.8987147 Z" id="Shape"></path>
                <path d="M12.2320331,19.796144 L12.2320331,19.4884319 L12.2320331,19.1807198 C12.1300995,18.9755784 12.0281659,18.9755784 11.9262323,18.9755784 L11.0088298,18.9755784 L11.0088298,19.796144 L9.98949369,19.796144 L9.98949369,16.0010283 L12.4359003,16.0010283 C12.7417011,16.0010283 13.047502,16.0010283 13.2513692,16.4113111 L13.2513692,17.437018 L13.2513692,19.8987147 L12.2320331,19.796144 L12.2320331,19.796144 Z M12.2320331,17.437018 L12.2320331,17.0267352 C12.1300995,16.8215938 12.0281659,16.8215938 11.9262323,16.8215938 L11.0088298,16.8215938 L11.0088298,17.5395887 L11.0088298,17.8473008 C11.1107634,18.0524422 11.212697,18.0524422 11.3146306,18.0524422 L12.3339667,18.0524422 L12.3339667,17.437018 L12.2320331,17.437018 Z" id="Shape"></path>
                <path d="M16.3093774,19.796144 L16.3093774,17.437018 C16.3093774,17.3344473 16.3093774,17.1293059 16.2074438,17.0267352 C16.1055102,16.8215938 16.0035766,16.8215938 15.901643,16.8215938 L15.1881077,16.8215938 L15.1881077,19.796144 L14.1687717,19.796144 L14.1687717,16.0010283 L16.4113111,16.0010283 C16.7171119,16.0010283 17.0229127,16.0010283 17.2267799,16.4113111 C17.3287135,16.6164524 17.3287135,17.0267352 17.3287135,17.3344473 L17.3287135,19.796144 L16.3093774,19.796144 L16.3093774,19.796144 Z" id="Shape"></path>
                <path d="M22.3234604,19.796144 C22.1195932,18.6678663 21.7118587,18.4627249 21.2021907,18.4627249 L20.7944562,18.4627249 L20.7944562,19.796144 L19.7751202,19.796144 L19.7751202,16.0010283 L22.3234604,16.0010283 C22.5273276,16.0010283 22.935062,16.0010283 23.1389293,16.4113111 C23.2408629,16.6164524 23.2408629,16.8215938 23.2408629,17.0267352 C23.2408629,17.2318766 23.2408629,17.5395887 23.1389293,17.6421594 C23.0369956,17.8473008 22.8331284,17.9498715 22.6292612,17.9498715 C23.0369956,18.2575835 23.2408629,18.8730077 23.4447301,19.5910026 L22.3234604,19.796144 L22.3234604,19.796144 Z M21.9157259,16.8215938 L20.7944562,16.8215938 L20.7944562,17.5395887 L21.9157259,17.5395887 C22.0176596,17.5395887 22.2215268,17.5395887 22.2215268,17.1293059 C22.2215268,16.8215938 22.0176596,16.8215938 21.9157259,16.8215938 L21.9157259,16.8215938 Z" id="Shape"></path>
                <path d="M24.1582653,19.796144 L24.1582653,17.3344473 C24.1582653,17.0267352 24.1582653,16.7190231 24.2601989,16.4113111 C24.4640662,16.0010283 24.8718006,16.0010283 25.0756678,16.0010283 L27.624008,16.0010283 L27.624008,16.8215938 L25.1776014,16.8215938 L25.1776014,17.437018 L27.3182072,17.437018 L27.3182072,18.1550129 L25.1776014,18.1550129 L25.1776014,18.8730077 L27.624008,18.8730077 L27.624008,19.6935733 L24.1582653,19.796144 L24.1582653,19.796144 Z" id="Shape"></path>
                <path d="M29.3568794,19.6935733 C29.1530122,19.6935733 28.7452777,19.6935733 28.5414105,19.2832905 C28.4394769,19.0781491 28.4394769,18.6678663 28.4394769,18.3601542 L28.4394769,17.3344473 C28.4394769,17.0267352 28.4394769,16.6164524 28.5414105,16.4113111 C28.7452777,16.0010283 29.1530122,16.0010283 29.3568794,16.0010283 L31.9052196,16.0010283 L31.9052196,16.8215938 L29.458813,16.8215938 L29.458813,18.4627249 C29.458813,18.5652956 29.458813,18.770437 29.5607466,18.8730077 C29.6626802,19.0781491 29.7646138,19.0781491 29.8665474,19.0781491 L30.8858835,19.0781491 L30.8858835,18.3601542 L30.3762155,18.3601542 L30.3762155,17.437018 L31.1916844,17.437018 C31.3955516,17.437018 31.7013524,17.437018 31.9052196,17.7447301 C32.0071532,17.9498715 32.0071532,18.2575835 32.0071532,18.4627249 L32.0071532,19.6935733 L29.3568794,19.6935733 L29.3568794,19.6935733 Z" id="Shape"></path>
                <path d="M35.1670951,19.6935733 L35.1670951,19.3858612 L35.1670951,19.0781491 C35.0651615,18.8730077 34.9632279,18.8730077 34.8612943,18.8730077 L33.9438918,18.8730077 L33.9438918,19.6935733 L32.9245557,19.6935733 L32.9245557,15.8984576 L35.3709623,15.8984576 C35.6767632,15.8984576 35.982564,15.8984576 36.1864312,16.3087404 C36.2883648,16.5138817 36.2883648,16.9241645 36.2883648,17.2318766 L36.2883648,19.6935733 L35.1670951,19.6935733 L35.1670951,19.6935733 Z M35.1670951,17.3344473 C35.1670951,17.2318766 35.1670951,17.0267352 35.0651615,16.9241645 C34.9632279,16.7190231 34.8612943,16.7190231 34.7593607,16.7190231 L33.8419582,16.7190231 L33.8419582,17.437018 L33.8419582,17.7447301 C33.9438918,17.9498715 34.0458254,17.9498715 34.147759,17.9498715 L35.1670951,17.9498715 L35.1670951,17.3344473 L35.1670951,17.3344473 Z" id="Shape"></path>
                <polygon id="Shape" points="38.836705 16.7190231 38.836705 19.6935733 37.817369 19.6935733 37.817369 16.7190231 36.7980329 16.7190231 36.7980329 15.8984576 39.9579747 15.8984576 39.9579747 16.7190231"></polygon>
                <polygon id="Shape" points="42.2005141 16.7190231 42.2005141 19.6935733 41.181178 19.6935733 41.181178 16.7190231 40.161842 16.7190231 40.161842 15.8984576 43.3217838 15.8984576 43.3217838 16.7190231"></polygon>
                <path d="M46.1759249,19.5910026 L46.1759249,19.2832905 L46.1759249,18.9755784 C46.0739913,18.770437 45.9720577,18.770437 45.8701241,18.770437 L44.9527216,18.770437 L44.9527216,19.5910026 L43.9333855,19.5910026 L43.9333855,15.7958869 L46.3797921,15.7958869 C46.5836593,15.7958869 46.9913938,15.7958869 47.195261,16.2061697 C47.2971946,16.4113111 47.2971946,16.8215938 47.2971946,17.1293059 L47.2971946,19.5910026 L46.1759249,19.5910026 L46.1759249,19.5910026 Z M46.1759249,17.2318766 C46.1759249,17.1293059 46.1759249,16.9241645 46.0739913,16.8215938 C45.9720577,16.6164524 45.8701241,16.6164524 45.7681905,16.6164524 L44.850788,16.6164524 L44.850788,17.437018 L44.850788,17.7447301 C44.9527216,17.9498715 45.0546552,17.9498715 45.1565888,17.9498715 L46.1759249,17.9498715 L46.1759249,17.2318766 L46.1759249,17.2318766 Z" id="Shape"></path>
                <path d="M53.2093439,41.1308483 C51.2726053,43.2848329 49.1319996,45.0285347 46.2778585,45.4388175 C40.7734436,46.259383 37.1038337,43.3874036 35.1670951,41.0282776 L10.4991617,44.0028278 L43.6275847,49.0287918 L76.7560076,44.0028278 L53.2093439,41.1308483 L53.2093439,41.1308483 Z" id="Shape"></path>
                <path d="M93.6769867,0 C68.6013189,3.89768638 63.096904,21.9501285 56.2673522,30.6686375 C67.8877836,18.8730077 74.7173354,23.8989717 76.5521404,27.3863753 C76.2463396,22.1552699 75.0231362,4.00025707 93.6769867,0 L93.6769867,0 Z" id="Shape"></path>
                <path d="M70.4361238,24.822108 C62.1795015,24.0015424 58.2040908,30.9763496 52.6996759,33.4380463 C41.181178,38.4640103 34.5554935,29.6429306 32.2110205,30.7712082 C30.2742819,31.6943445 32.2110205,37.1305913 33.8419582,39.4897172 C35.4728959,41.8488432 39.4483067,45.7465296 45.9720577,44.8233933 C53.4132111,43.6951157 56.7770202,33.9508997 61.262099,30.7712082 C67.276182,26.5658098 72.2709288,32.51491 75.5328043,31.181491 C77.163742,30.5660668 77.8772773,25.5401028 70.4361238,24.822108 L70.4361238,24.822108 Z M33.3322902,32.4123393 C33.3322902,32.4123393 37.6135017,37.1305913 43.5256511,37.7460154 C48.6223315,38.3614396 52.393875,36.3100257 54.9422153,33.9508997 C54.9422153,33.9508997 43.2198502,45.6439589 33.3322902,32.4123393 L33.3322902,32.4123393 Z" id="Shape"></path>
            </g>
        </g>
    </g>
</svg>