<?xml version="1.0" encoding="UTF-8"?>
<svg width="66px" height="56px" viewBox="0 0 66 56" version="1.1" xmlns="http://www.w3.org/2000/svg" xmlns:xlink="http://www.w3.org/1999/xlink">
    <!-- Generator: Sketch 40.3 (33839) - http://www.bohemiancoding.com/sketch -->
    <title>切图/默认数据/logo-race@1x</title>
    <desc>Created with Sketch.</desc>
    <defs>
        <polygon id="path-1" points="42.2722269 0.190823788 0.148770932 0.190823788 0.148770932 34.3731019 42.2722269 34.3731019 42.2722269 0.190823788"></polygon>
        <polygon id="path-3" points="0 0.389730729 0 9.72730656 13.010192 9.72730656 13.010192 0.389730729 6.93336347e-21 0.389730729"></polygon>
    </defs>
    <g id="素材和切图" stroke="none" stroke-width="1" fill="none" fill-rule="evenodd" opacity="0.5">
        <g id="中帆联/切图/" transform="translate(-1108.000000, -1566.000000)">
            <g id="切图/默认数据/logo-race" transform="translate(1108.000000, 1566.000000)">
                <g id="Group-3" transform="translate(10.231839, 0.320768)">
                    <mask id="mask-2" fill="white">
                        <use xlink:href="#path-1"></use>
                    </mask>
                    <g id="Clip-2"></g>
                    <path d="M17.4845749,10.9832647 C16.5422226,5.33273192 12.9339648,2.06161314 9.92580423,0.272576178 C7.92445662,0.398427792 6.32931299,0.643991917 5.34910286,0.827141826 C15.0780465,3.07661153 17.4845749,10.9832647 17.4845749,10.9832647 M10.0004967,29.2614211 C10.0004967,29.2614211 30.4227348,27.2523996 36.0154577,10.584223 C35.196399,9.54262188 34.3323203,8.59822318 33.434988,7.74898059 C32.4394301,12.4448829 28.1829853,23.4804323 10.0004967,29.2614211 M40.8131668,19.3641637 C27.7481322,35.1498441 0.148770932,33.7460359 0.148770932,33.7460359 C22.9821418,36.6283448 36.4584963,28.899214 42.2722269,24.2754462 C41.8568143,22.5176163 41.3687556,20.8820569 40.8131668,19.3641637 M5.66117394,32.3386465 C5.66117394,32.3386465 28.4822666,31.7191087 39.9224852,17.1459011 C39.3525718,15.8582242 38.7294529,14.6682614 38.0664297,13.5632228 C35.8323078,17.7270695 28.1164783,28.2116344 5.66117394,32.3386465 M14.8022985,26.2061941 C14.8022985,26.2061941 29.8185447,19.7018143 31.7370144,6.27866539 C30.8468445,5.57215694 29.9326297,4.93982932 29.0015324,4.38117094 C28.5497967,9.52471616 26.0419731,18.711884 14.8022985,26.2061941 M18.0166305,19.6255872 C18.0166305,19.6255872 24.0759253,13.4977391 21.9916998,1.41393777 C20.9449827,1.12591151 19.9038932,0.897741512 18.884802,0.720730706 C20.5858452,5.1879514 22.0249533,12.3753064 18.0166305,19.6255872 M18.7241622,14.2794515 C18.7241622,14.2794515 21.0196751,6.57027279 15.9477528,0.339083129 C14.8007637,0.237787927 13.6993063,0.193791022 12.6592399,0.19072147 C15.2412443,2.0708218 19.129343,6.25615535 18.7241622,14.2794515 M16.2368022,23.0803674 C16.2368022,23.0803674 26.8492651,16.2516384 27.1429189,3.36719574 C26.0823889,2.84025606 25.0080458,2.39312471 23.9337028,2.01812783 C24.6468619,7.06191263 24.2427043,15.526201 16.2368022,23.0803674" id="Fill-1" fill="#FEFDFD" mask="url(#mask-2)"></path>
                </g>
                <path d="M29.4300418,41.3925446 L28.6744205,41.5971814 C28.7982257,42.0944488 28.8652443,42.532883 28.9015673,42.9436913 L29.0182103,42.9145306 L29.7303462,42.738543 C29.7288115,42.47405 29.6229119,42.0366389 29.4300418,41.3925446" id="Fill-4" fill="#FEFDFD"></path>
                <path d="M41.6108409,44.8757694 L41.505453,44.8455855 C41.0567868,44.7289425 40.6168178,44.5831388 40.1778719,44.4368235 C39.4478302,45.7828219 38.7546232,46.9835282 38.0731827,48.0072236 C38.5581719,48.1259129 39.0697638,48.271205 39.5460559,48.4175203 C40.1937313,47.246998 40.8173618,46.1634463 41.4189939,45.1678884 L41.6108409,44.8757694 Z" id="Fill-6" fill="#FEFDFD"></path>
                <g id="Group-10" transform="translate(0.000000, 38.690163)">
                    <mask id="mask-4" fill="white">
                        <use xlink:href="#path-3"></use>
                    </mask>
                    <g id="Clip-9"></g>
                    <path d="M10.5770608,4.31210603 L12.6771456,4.31210603 L13.010192,3.08275063 L10.9085723,3.08275063 L9.10367601,3.08275063 C9.26789702,2.20434729 9.47560334,1.29729481 9.68330966,0.389730729 L7.9889172,0.389730729 L7.40877196,3.08275063 L5.08767939,3.08275063 L5.38030997,1.99919893 C6.05868086,1.94087745 6.70072873,1.88204438 7.26859577,1.8237229 L7.22664523,0.62352824 C5.5491353,0.82816501 3.78465475,0.945831153 1.9567368,1.03331337 C1.9250181,1.56076465 1.89483418,1.94087745 1.85186045,2.23299644 L3.57080933,2.1465374 L3.31859451,3.08275063 L1.14432882,3.08275063 L0.812817252,4.31210603 L2.98605975,4.31210603 L2.66324525,5.5112775 C1.90097328,5.6002945 1.18474458,5.65912757 0.441401514,5.68777672 L0.364151133,7.063959 L2.31382796,6.79997756 L1.99715256,7.97101148 C1.9500861,8.14699911 1.88306756,8.26415366 1.78433032,8.35163588 C1.69531332,8.40995736 1.56946171,8.46827883 1.42212324,8.46827883 L1.20060393,8.46827883 C0.794911535,8.46827883 0.3979162,8.43911809 -0.000102318385,8.40995736 C0.104262435,8.70258794 0.140585461,9.11339625 0.139050686,9.66898509 C0.838396849,9.66898509 1.42723916,9.66898509 1.95213247,9.63931275 C2.47753738,9.60964042 2.87606749,9.49350905 3.10781863,9.31700984 C3.38356668,9.11339625 3.52988197,8.84839164 3.62350329,8.49795117 L4.1299793,6.62501312 L6.21267003,6.41884158 C6.26024808,6.24387714 6.29964066,6.09756185 6.35540418,5.89292508 C6.4173068,5.65912757 6.48023261,5.42481847 6.59789875,5.13167629 C5.87297299,5.21915851 5.1946021,5.27850318 4.46916475,5.3654738 L4.75565623,4.31210603 L7.18776424,4.31210603 C6.96010584,5.42481847 6.89104093,6.36154328 6.92275963,7.063959 C5.99473187,7.50239328 5.04470567,7.88301767 3.99798858,8.20532058 C4.30033941,8.58594498 4.5295326,8.96656937 4.69170724,9.31700984 C5.55425122,8.99573011 6.34824189,8.64477805 7.11511819,8.26415366 C7.45839637,9.17120614 8.10658334,9.63931275 9.11441944,9.72730656 L9.37226177,9.72730656 C9.88845802,9.72730656 10.3401937,9.55183053 10.7223529,9.23003921 C11.1132091,8.87857556 11.5434579,8.23396973 12.0269123,7.26859577 C11.6227547,7.12228048 11.2006913,6.9181553 10.725934,6.62501312 C10.5274363,7.09311974 10.3125677,7.47323254 10.1156048,7.79502386 C9.9534302,8.11783837 9.79534829,8.2933144 9.75083979,8.32298673 C9.67000827,8.35163588 9.59582744,8.35163588 9.55950441,8.35163588 L9.48583518,8.35163588 C9.12516287,8.32298673 8.88164511,8.00017222 8.7368646,7.4440718 C9.13027879,7.21027429 9.52625094,6.97647678 9.93040856,6.71147216 C10.6829603,6.24387714 11.3597964,5.77577053 12.0187268,5.24831925 L10.9581967,4.40009984 C10.7730005,4.54590354 10.6220808,4.69221883 10.4343266,4.83904571 C9.86645957,5.30715232 9.23003921,5.74660979 8.56752767,6.15588333 C8.59259567,5.65912757 8.68468222,5.04317089 8.80951065,4.31210603 L10.5770608,4.31210603 Z" id="Fill-8" fill="#FEFDFD" mask="url(#mask-4)"></path>
                </g>
                <path d="M31.852583,41.4209891 L38.2653878,41.4209891 L38.5743893,40.2801391 L35.3677312,40.2801391 L36.1873014,40.1041515 C36.0338238,39.7235271 35.8772767,39.3429027 35.6869645,38.9622783 L33.9981996,39.3429027 C34.1347946,39.6641825 34.3061779,39.9875086 34.4090079,40.2801391 L32.1626077,40.2801391 L31.852583,41.4209891 Z" id="Fill-11" fill="#FEFDFD"></path>
                <path d="M41.8166543,41.2456666 L42.6346898,40.6598938 L43.1826048,40.279781 C43.0593111,40.1922988 42.9426682,40.0756559 42.8198861,39.987662 C42.4259603,39.6643359 41.9967347,39.3430562 41.5982046,39.0509372 L40.3299682,39.9283174 C40.8748136,40.3677748 41.3797548,40.8062091 41.8166543,41.2456666" id="Fill-13" fill="#FEFDFD"></path>
                <path d="M40.7510084,43.8215831 L42.0524982,42.8265368 L42.0944488,42.7973761 L42.0668228,42.7682153 C41.56137,42.3292694 41.0364766,41.9486451 40.5407441,41.5971814 L39.3011568,42.5047455 C40.0777534,43.1780004 40.5473948,43.6164347 40.7510084,43.8215831" id="Fill-15" fill="#FEFDFD"></path>
                <path d="M11.0517157,41.2456666 C11.1673355,41.3628211 11.2834669,41.4799757 11.3995983,41.5971302 C11.757201,41.3628211 12.2048439,41.0701906 12.7333184,40.747376 C12.444269,40.4552571 12.0319259,40.0756559 11.4865689,39.6361984 C11.3612289,39.547693 11.2097976,39.4305384 11.0655287,39.2847347 L9.81980239,40.0756559 C10.2705149,40.4552571 10.6838811,40.836393 11.0517157,41.2456666" id="Fill-17" fill="#FEFDFD"></path>
                <path d="M55.0645831,42.7974272 C55.1858303,43.1780516 55.2968458,43.5878367 55.4441843,43.9976219 C55.1177886,44.3782463 54.7734873,44.7000376 54.4573234,45.0515012 C54.1508799,45.372781 53.812206,45.6664347 53.51139,45.9590653 L54.6829355,41.6258817 C54.7995784,42.0065061 54.9172446,42.3866189 55.0645831,42.7974272 L55.0645831,42.7974272 Z M58.328028,42.4459636 L58.7495797,44.0267826 C58.3607698,44.5245616 57.9376833,44.9926682 57.5258518,45.431614 L57.4721347,45.4904471 L57.0122135,44.0554318 C57.4383696,43.5581644 57.8849893,43.002064 58.328028,42.4459636 L58.328028,42.4459636 Z M59.1532257,39.4009684 L55.9834022,39.4009684 L53.6628212,39.4009684 L51.2353175,48.389127 L52.8565523,48.389127 L53.2837316,46.8083079 C53.4914379,46.9837839 53.6679371,47.1582368 53.848529,47.3050637 C54.5233188,46.7203141 55.1766217,46.0757083 55.8447607,45.372781 L56.2903573,47.1295876 L56.9830528,46.8957901 C57.0086324,46.9239277 57.08179,46.9239277 57.1129971,46.9541116 C57.1994562,47.0421054 57.321215,47.1295876 57.4486014,47.2175815 C58.0103294,46.6318087 58.5741037,46.0465475 59.1470866,45.431614 L59.5031546,46.8369571 L60.9801205,46.2813682 L60.3278408,44.0554318 C61.0440695,43.1780516 61.7700184,42.2699759 62.4355995,41.3040904 L61.2195455,40.8943053 C60.7954358,41.5087272 60.3406306,42.0944999 59.895034,42.6506003 L59.388558,40.9812759 L58.6615859,41.2171198 L57.9300094,40.9229544 C57.5058997,41.5389111 57.0562104,42.1241722 56.564059,42.7094334 L55.9706124,40.9536499 L55.5168303,41.1286144 L54.736141,41.4212449 L54.9607299,40.6016747 L55.6610992,40.6016747 L58.8304112,40.6016747 L62.6269349,40.6016747 L61.0205363,46.5443265 C60.9146367,46.9239277 60.6015425,47.1295876 60.0858578,47.1295876 C59.5312922,47.1295876 58.9521701,47.0999153 58.4093711,47.0712662 C58.4165334,47.4518906 58.4431361,47.891348 58.4211377,48.389127 C59.5635225,48.389127 60.3743957,48.389127 60.7944126,48.3292707 C61.2435903,48.30011 61.6247263,48.1256571 61.9137758,47.8611641 C62.243241,47.5976943 62.4591328,47.2175815 62.5916351,46.7203141 L64.569961,39.4009684 L59.1532257,39.4009684 Z" id="Fill-19" fill="#FEFDFD"></path>
                <path d="M19.0323452,46.3680831 C18.8952385,46.3389223 18.753016,46.3102732 18.5775399,46.2811124 C17.8449403,46.1342856 17.239727,46.0462917 16.713299,45.9588095 C16.8990068,45.8124942 17.0852263,45.6666905 17.2724689,45.5203752 L18.7842231,45.5203752 L20.6264656,45.5203752 C20.1726836,45.8421666 19.6508598,46.1342856 19.0323452,46.3680831 L19.0323452,46.3680831 Z M17.2760501,42.914326 L16.4651769,42.914326 L15.6537921,42.914326 L15.8927055,42.0364342 L16.7030671,42.0364342 L17.5144519,42.0364342 L17.2760501,42.914326 Z M18.9494673,42.0364342 L19.7229943,42.0364342 L20.5333559,42.0364342 L20.297512,42.914326 L19.487662,42.914326 L18.714135,42.914326 L18.9494673,42.0364342 Z M19.384832,40.4264544 L20.1604054,40.4264544 L20.9697438,40.4264544 L20.7947793,41.0705487 L19.9849293,41.0705487 L19.2114023,41.0705487 L19.384832,40.4264544 Z M21.969906,42.0364342 L22.782314,42.0364342 L23.5548178,42.0364342 L23.3205087,42.914326 L22.5444237,42.914326 L21.7361085,42.914326 L21.969906,42.0364342 Z M19.0604827,44.495145 L18.3979712,44.495145 C18.6373962,44.2905083 18.8379402,44.0848483 19.0794116,43.8807231 L19.2241921,43.8807231 L22.284535,43.8807231 L24.5698162,43.8807231 L25.3269722,41.0705487 L23.0432259,41.0705487 L22.2318411,41.0705487 L22.4068055,40.4264544 L23.2192135,40.4264544 L25.9081406,40.4264544 L26.1854235,39.4012242 L23.4949615,39.4012242 L20.4351302,39.4012242 L17.4146915,39.4012242 L14.7247411,39.4012242 L14.4474583,40.4264544 L17.1374087,40.4264544 L17.9482819,40.4264544 L17.7753638,41.0705487 L16.9655138,41.0705487 L14.6449328,41.0705487 L13.883684,43.8807231 L16.2047766,43.8807231 L17.3456266,43.8807231 C17.1440594,44.0848483 16.9051459,44.2905083 16.6641861,44.495145 L16.0385092,44.495145 L13.1280627,44.495145 L12.8507799,45.5203752 L15.467061,45.5203752 C15.0567643,45.8124942 14.6387937,46.1342856 14.225939,46.4264045 C14.6178184,46.4852376 15.0352774,46.5732314 15.453248,46.6612252 C15.909588,46.7487075 16.4017395,46.8372129 16.8867286,46.9538558 C16.418622,47.0418496 15.8799157,47.1293319 15.3105139,47.1876533 C14.5149884,47.2756471 13.6503981,47.3349918 12.6855357,47.363641 C12.8405481,47.7437538 12.9224028,48.1259129 12.9295651,48.5050025 C13.680582,48.4461695 14.3594645,48.3888712 15.0117442,48.2998542 C16.201707,48.1259129 17.2509821,47.920253 18.2158444,47.6276224 C18.4532231,47.5687893 18.6527439,47.5094447 18.8614735,47.422474 C19.5792369,47.6276224 20.3328118,47.8317476 21.1534053,48.0665683 C21.641464,48.1837228 22.1157097,48.3295265 22.6564624,48.5050025 L23.6719723,47.3349918 L21.4803125,46.8668852 L20.6423249,46.690386 C21.0290884,46.4852376 21.3421827,46.2811124 21.6916,46.0759641 C21.9581394,45.900488 22.200634,45.6958513 22.4308503,45.5203752 L24.7156199,45.5203752 L24.9929027,44.495145 L22.1177561,44.495145 L19.0604827,44.495145 Z" id="Fill-21" fill="#FEFDFD"></path>
                <path d="M48.3294753,43.73318 L47.259225,43.73318 L46.7450752,43.73318 L47.3702405,43.3244181 L47.6833347,43.1187581 L47.4659082,42.9729544 C47.1144445,42.7683176 46.8284646,42.5928416 46.6125728,42.4460147 L46.5153704,42.3866701 L46.627409,42.3866701 L47.6219437,42.3866701 L48.6891245,42.3866701 L48.3294753,43.73318 Z M47.6367799,46.017438 L46.6417336,46.017438 L46.1250257,46.017438 L46.7476331,45.6373252 L47.0233812,45.4316652 L46.8320458,45.3155338 C46.4821169,45.1088507 46.196137,44.9343979 45.9781989,44.7880826 L45.8574632,44.7000887 L46.0032669,44.7000887 L46.9998479,44.7000887 L48.0317288,44.7000887 L47.6367799,46.017438 Z M45.6461757,46.017438 L44.7253102,46.017438 L43.4360986,46.017438 L43.9415514,44.7000887 L45.0824014,44.7000887 L45.5259516,44.7000887 L44.9959424,45.0213685 L44.6383396,45.2561892 C44.7319609,45.3155338 44.7902824,45.3728321 44.8874849,45.4316652 C45.1258867,45.6373252 45.4077739,45.8122896 45.6574307,45.9877656 L45.6830103,46.017438 L45.6461757,46.017438 Z M44.8583241,42.3866701 L45.7055204,42.3866701 L46.1843704,42.3866701 L45.6216193,42.7094846 L45.3080134,42.9141213 L45.5208357,43.090109 L46.2800381,43.6753701 L46.3746826,43.73318 L46.2641787,43.73318 L45.3428017,43.73318 L44.3487786,43.73318 L44.8583241,42.3866701 Z M50.609129,41.4207845 L47.8833672,41.4207845 L46.8878093,41.4207845 L45.967967,41.4207845 L44.3825436,41.4207845 C44.6588033,41.2171709 44.9069254,40.981327 45.1458388,40.7772019 L46.1429315,40.7772019 L47.0627737,40.7772019 L48.0593548,40.7772019 L51.4107935,40.7772019 L51.6890995,39.7529948 L48.3345913,39.7529948 L47.3410797,39.7529948 L46.4191911,39.7529948 L46.196137,39.7529948 C46.3020365,39.6358403 46.4094709,39.5186857 46.5046269,39.4306919 C46.602341,39.3432097 46.6545234,39.2848882 46.716426,39.1963828 L46.5695991,39.1963828 L45.0701232,39.02193 C44.4152855,39.8108047 43.5430213,40.5720535 42.461516,41.3041415 C42.319805,41.4207845 42.1402362,41.5389622 41.9540168,41.6847659 C42.0599163,41.8310812 42.1775824,41.9487474 42.2492053,42.0945511 C42.4149611,42.2996994 42.5428591,42.5048478 42.6815005,42.6798122 C42.9101821,42.5048478 43.1363057,42.3585325 43.360383,42.211194 L42.7638668,43.73318 L41.8071899,43.73318 L41.6583166,43.73318 L41.3968932,44.7000887 L41.5457664,44.7000887 L42.3929626,44.7000887 L41.4792595,46.9838351 L44.4654215,46.9838351 L45.3857754,46.9838351 L46.3797985,46.9838351 L47.3390334,46.9838351 C47.2776423,47.2176326 47.1333734,47.3347872 46.944596,47.3639479 C46.7450752,47.4222694 46.5609021,47.4222694 46.3025481,47.4222694 L46.2662251,47.4222694 L45.2706672,47.4222694 C45.0491479,47.4222694 44.7902824,47.4222694 44.5022562,47.3925971 C44.5170923,47.7440607 44.5784833,48.0668752 44.5938311,48.4173157 L44.9985003,48.4173157 C45.3775899,48.3886665 45.7085899,48.3886665 46.0027553,48.3886665 C46.5256022,48.3589942 46.9312946,48.3589942 47.1993688,48.3293219 C47.6470117,48.3001611 48.0127999,48.1835182 48.2793393,48.0075306 C48.5934568,47.8034054 48.7878617,47.4805909 48.9602682,46.9838351 L49.8811337,46.9838351 L50.1425571,46.017438 L49.2580147,46.017438 L49.6524521,44.7000887 L50.6096406,44.7000887 L50.8695293,43.73318 L49.9123408,43.73318 L50.609129,41.4207845 Z" id="Fill-23" fill="#FEFDFD"></path>
                <path d="M28.9314443,43.2360661 L28.1962867,43.2360661 L28.7887101,41.039802 L29.5238677,41.039802 L30.2252603,41.039802 L29.6328368,43.2360661 L28.9314443,43.2360661 Z M28.8245216,46.221205 C28.7881985,45.8109083 28.6649049,45.3136409 28.5277983,44.7288914 L28.5150085,44.6414092 L27.7598988,44.8455343 L27.9092836,44.2904571 L28.6475108,44.2904571 L29.3468569,44.2904571 L28.8245216,46.221205 Z M31.890492,40.0452673 L30.2329341,40.0452673 C30.5071474,39.723476 30.7501536,39.3720123 31.0207857,39.0507326 L30.0707595,39.0220834 L29.3043948,38.9924111 C29.091061,39.3720123 28.8864242,39.723476 28.6863918,40.0452673 L27.6918571,40.0452673 C27.1700333,41.97755 26.8502883,43.031941 26.7950364,43.2360661 L26.2793517,43.2360661 L25.994395,44.2904571 L26.5080333,44.2904571 C26.1258742,45.5786456 25.6286068,46.6038758 25.0535775,47.3635898 C25.3318835,47.6858927 25.6352575,48.0665171 25.8844028,48.5049514 C26.684021,47.5973873 27.3040704,46.3987274 27.7532481,44.8757183 C27.872449,45.5203241 27.9527689,46.0462406 27.9875572,46.4560257 L28.0683887,46.4263534 L28.8234984,46.2217166 L28.7135061,46.6320133 C28.6674629,46.808001 28.5584938,46.9241323 28.3906916,47.0131493 C28.2295402,47.0709592 28.0699235,47.10012 27.886262,47.10012 L27.2360286,47.0709592 L27.1930549,48.299803 L27.5629359,48.299803 C27.8560781,48.299803 28.1967983,48.2711539 28.5006839,48.2419931 C28.9498616,48.2123208 29.2747225,48.0956778 29.5141475,47.8915527 C29.7525493,47.6858927 29.9075617,47.3927505 30.012438,47.0131493 L31.890492,40.0452673 Z" id="Fill-25" fill="#FEFDFD"></path>
                <path d="M35.9913105,46.8371617 C35.8772255,46.983477 35.7897433,47.0417985 35.6408701,47.0417985 C35.4940432,47.0417985 35.4080958,46.9543163 35.4623245,46.7486563 L36.6635423,42.2998529 L32.2797111,42.2998529 L31.9072722,43.675012 C31.4545133,45.3443365 30.7920018,46.5731803 29.9161564,47.3635898 C30.2875722,47.7728633 30.5965737,48.1258618 30.8697638,48.475279 C32.0223804,47.3349406 32.8404159,45.8124431 33.361728,43.880672 L33.4829753,43.4412145 L34.847391,43.4412145 L33.8564374,47.10012 C33.6518007,47.8613687 33.9239676,48.2123208 34.6601484,48.2123208 L35.3247063,48.2123208 C35.6920293,48.2123208 36.0035888,48.1545109 36.2588731,48.0368448 C36.4727186,47.9202018 36.6758205,47.7145419 36.8354372,47.3927505 C36.9991466,47.0709592 37.2687556,46.3388712 37.6125454,45.1975096 C37.4155825,45.1090042 37.0774202,44.9928728 36.6389859,44.8455343 C36.2859875,46.0170798 36.0690725,46.6903348 35.9913105,46.8371617" id="Fill-27" fill="#FEFDFD"></path>
                <path d="M9.19320459,53.92051 L8.89648128,51.0965226 L9.534948,51.0965226 L9.64800982,52.7264545 L9.68279807,53.3332025 C9.6996806,53.302507 9.81734674,53.1091252 10.0347733,52.7530573 L11.0840484,51.0965226 L11.7071673,51.0965226 L11.7879988,52.7356631 L11.8125553,53.2743694 L12.1737392,52.7325936 L13.2680343,51.0965226 L13.8635273,51.0965226 L11.9199896,53.92051 L11.2907315,53.92051 L11.1925058,52.2312335 L11.1873899,51.7488023 L9.83474087,53.92051 L9.19320459,53.92051 Z" id="Fill-29" fill="#FEFDFD"></path>
                <path d="M13.8024944,53.92051 L13.5057711,51.0965226 L14.1442378,51.0965226 L14.256788,52.7264545 L14.2920878,53.3332025 C14.3089704,53.302507 14.4261249,53.1091252 14.6440631,52.7530573 L15.6928265,51.0965226 L16.3164571,51.0965226 L16.396777,52.7356631 L16.421845,53.2743694 L16.7830289,52.7325936 L17.8773241,51.0965226 L18.4723055,51.0965226 L16.5282562,53.92051 L15.9000213,53.92051 L15.8017956,52.2312335 L15.7956565,51.7488023 L14.4435191,53.92051 L13.8024944,53.92051 Z" id="Fill-31" fill="#FEFDFD"></path>
                <path d="M18.4118353,53.92051 L18.1156236,51.0965226 L18.7530671,51.0965226 L18.8656173,52.7264545 L18.9004056,53.3332025 C18.9172881,53.302507 19.0354659,53.1091252 19.253404,52.7530573 L20.3026791,51.0965226 L20.9247748,51.0965226 L21.0056064,52.7356631 L21.0316976,53.2743694 L21.3918583,52.7325936 L22.4856418,51.0965226 L23.0811348,51.0965226 L21.1386203,53.92051 L20.5093622,53.92051 L20.4111366,52.2312335 L20.4060206,51.7488023 L19.0533716,53.92051 L18.4118353,53.92051 Z" id="Fill-33" fill="#FEFDFD"></path>
                <polygon id="Fill-35" fill="#FEFDFD" points="22.1538233 53.92051 22.3083241 53.3792458 23.0081818 53.3792458 22.8547042 53.92051"></polygon>
                <path d="M23.6086884,52.903363 L24.2625029,52.8665283 C24.2420392,53.1069766 24.3013839,53.2885917 24.4400253,53.4093274 C24.5771319,53.5305747 24.7705137,53.5909425 25.0186358,53.5909425 C25.3184286,53.5909425 25.5941767,53.5044835 25.8458799,53.3310538 C26.0980947,53.1581357 26.2633389,52.9289426 26.3451936,52.6424511 C26.4214208,52.3702842 26.3856094,52.1559272 26.2367361,51.9978453 C26.0858165,51.8412981 25.8499726,51.762513 25.5271581,51.762513 C25.3261025,51.762513 25.1357903,51.7973012 24.9587795,51.8679009 C24.7812571,51.9390122 24.6313607,52.0310987 24.508067,52.1421142 L23.9494086,52.0766304 L24.9956141,50.0798871 L27.4875784,50.0798871 L27.3581456,50.5341808 L25.3491241,50.5341808 L24.7899542,51.5839674 C25.1357903,51.4207696 25.4754873,51.3384033 25.8064873,51.3384033 C26.2433868,51.3384033 26.5810375,51.4560694 26.8153466,51.6914017 C27.0486325,51.9272456 27.1141163,52.230108 27.0087284,52.5989658 C26.9089679,52.9524758 26.6910298,53.2563614 26.3538907,53.5136921 C25.9441056,53.8283212 25.462186,53.9858915 24.9076203,53.9858915 C24.4528151,53.9858915 24.1100485,53.8876658 23.8788089,53.6891682 C23.6475694,53.4916937 23.5575292,53.2297586 23.6086884,52.903363" id="Fill-37" fill="#FEFDFD"></path>
                <path d="M29.0868148,53.92051 L28.475974,53.92051 L29.3390296,50.8775613 C29.1594608,50.9865303 28.9343604,51.096011 28.6637282,51.2054917 C28.3920729,51.3149724 28.1531595,51.3968271 27.9464764,51.4531022 L28.0764207,50.9916463 C28.4560219,50.8652831 28.7993001,50.7138518 29.1072784,50.5347947 C29.4142336,50.3557375 29.6454731,50.1823078 29.8004855,50.0139941 L30.1938997,50.0139941 L29.0868148,53.92051 Z" id="Fill-39" fill="#FEFDFD"></path>
                <path d="M30.3982807,53.92051 L31.5017844,50.0293418 L32.1131368,50.0293418 L31.7171646,51.4234298 C32.0757906,51.1666107 32.4722743,51.0382011 32.9066159,51.0382011 C33.1741784,51.0382011 33.3946746,51.0796401 33.569639,51.1620064 C33.7425571,51.2443727 33.850503,51.3574345 33.8960347,51.5032382 C33.9390084,51.6475071 33.9226374,51.858283 33.8448755,52.134031 L33.3378879,53.92051 L32.7275587,53.92051 L33.2340347,52.1330078 C33.3020764,51.8935828 33.2851939,51.71913 33.1828755,51.6106725 C33.0805571,51.5027266 32.9081506,51.4479863 32.6661677,51.4479863 C32.4850641,51.4479863 32.3039606,51.4848209 32.122857,51.5579785 C31.9422651,51.6311362 31.7990194,51.7314082 31.6961894,51.8572598 C31.5933594,51.9825998 31.5094583,52.1565411 31.4475557,52.3775488 L31.0101446,53.92051 L30.3982807,53.92051 Z" id="Fill-41" fill="#FEFDFD"></path>
                <path d="M36.5758555,52.501661 C36.3313145,52.5722607 35.9793393,52.6321169 35.518395,52.6817413 C35.2559483,52.7103905 35.0681941,52.7421092 34.9530859,52.777409 C34.8374661,52.8121973 34.7412868,52.8643797 34.6655712,52.932933 C34.5888324,53.0009747 34.5386964,53.0761787 34.5161864,53.1590566 C34.480375,53.2869546 34.5120937,53.3923425 34.6123657,53.4777784 C34.7136609,53.5627026 34.8829978,53.6056764 35.123446,53.6056764 C35.3618478,53.6056764 35.5838787,53.5662838 35.7926082,53.4849407 C36.0008262,53.4056439 36.1681167,53.2951401 36.2944799,53.1549639 C36.3916824,53.047018 36.4704675,52.8874013 36.5303238,52.6766254 L36.5758555,52.501661 Z M36.3215943,53.5693533 C36.0540317,53.7187382 35.807956,53.8246377 35.5792744,53.8865403 C35.3505928,53.9474198 35.1157721,53.9791385 34.8737891,53.9791385 C34.4747474,53.9791385 34.1897907,53.9029113 34.0184074,53.7509685 C33.8470242,53.601072 33.7943302,53.4071787 33.8608371,53.1728696 C33.9002297,53.0342282 33.9754337,52.9093998 34.0895187,52.7942916 C34.2020689,52.6812298 34.3345713,52.5896548 34.4854909,52.5205899 C34.6358989,52.451525 34.7975619,52.3998542 34.973038,52.3635312 C35.1004244,52.3394863 35.2897134,52.3164647 35.540905,52.2919083 C36.0514738,52.2468882 36.4326097,52.1921479 36.6853362,52.1281989 C36.7073346,52.0622035 36.7196128,52.0212762 36.7242171,52.003882 C36.7784459,51.8099887 36.7579822,51.6733937 36.6643609,51.5946085 C36.5385093,51.4866626 36.3175016,51.4329455 36.0059421,51.4329455 C35.7148463,51.4329455 35.4892342,51.4733612 35.3285944,51.552658 C35.1669313,51.6319547 35.0236856,51.7721309 34.9009035,51.9752329 L34.3253626,51.9082144 C34.4358665,51.7081819 34.5719499,51.5465189 34.7325898,51.4227136 C34.8922065,51.29942 35.0999128,51.2047755 35.3562203,51.1382685 C35.6109931,51.0717616 35.8933919,51.0385081 36.2054629,51.0385081 C36.5159992,51.0385081 36.7579822,51.0666456 36.9360162,51.1234323 C37.113027,51.1807306 37.2352975,51.2523535 37.302316,51.3383009 C37.368823,51.4237368 37.4010533,51.5321943 37.4000301,51.6631618 C37.3979837,51.7445049 37.3672882,51.8918434 37.3074319,52.1031309 L37.1273516,52.738528 C37.0020116,53.1810551 36.9344814,53.461919 36.9257844,53.5795852 C36.9175989,53.6982745 36.9355046,53.8118479 36.9789899,53.9203054 L36.3512666,53.9203054 C36.3134088,53.820545 36.303177,53.7033904 36.3215943,53.5693533 L36.3215943,53.5693533 Z" id="Fill-43" fill="#FEFDFD"></path>
                <path d="M37.3062553,53.92051 L38.106385,51.0965226 L38.6522536,51.0965226 L38.5381686,51.4976107 C38.8911671,51.1911671 39.3188579,51.0382011 39.822776,51.0382011 C40.0422489,51.0382011 40.2330727,51.0688966 40.3988285,51.1302877 C40.5640727,51.1906555 40.680204,51.2704639 40.7426182,51.3702243 C40.8055441,51.4689615 40.8367512,51.5866277 40.8336816,51.7232227 C40.8321468,51.8107049 40.7983818,51.9667405 40.7364791,52.1872366 L40.2448393,53.92051 L39.6345101,53.92051 L40.1205225,52.2087234 C40.1742396,52.0138069 40.1926569,51.8674916 40.1721932,51.7723355 C40.151218,51.6756447 40.087269,51.5989059 39.9829042,51.5421192 C39.8775163,51.4843093 39.7429676,51.4551485 39.578235,51.4551485 C39.3173231,51.4551485 39.0727822,51.5196091 38.8451238,51.6485303 C38.6195118,51.777963 38.4547792,52.022504 38.3524608,52.3826647 L37.9165844,53.92051 L37.3062553,53.92051 Z" id="Fill-45" fill="#FEFDFD"></path>
                <path d="M41.5688392,52.4606825 C41.4639629,52.831075 41.4823802,53.1001724 41.6230679,53.2700209 C41.7647789,53.4398694 41.9776012,53.5247937 42.2625579,53.5247937 C42.5459798,53.5247937 42.8068917,53.440381 43.0463167,53.2715557 C43.2847185,53.1027303 43.4566134,52.8372141 43.5594434,52.4760302 C43.6571574,52.1312173 43.6315779,51.8713286 43.4842394,51.6963641 C43.3363893,51.5208881 43.1245903,51.4328943 42.8457727,51.4328943 C42.572071,51.4328943 42.3152518,51.5193533 42.0732688,51.6917598 C41.8333322,51.8651895 41.6650185,52.1209854 41.5688392,52.4606825 M40.5840247,54.1545633 L41.1595657,54.2205587 C41.1442179,54.3627813 41.1846337,54.4681692 41.2797898,54.5331414 C41.4076877,54.6221584 41.604139,54.6666669 41.8691437,54.6666669 C42.154612,54.6666669 42.3873863,54.6221584 42.5679782,54.5346761 C42.747547,54.4461707 42.8877232,54.3228771 42.986972,54.1653068 C43.0463167,54.0681043 43.1189627,53.8639791 43.2049102,53.5549776 C42.8677711,53.7979838 42.4973786,53.9207658 42.0962905,53.9207658 C41.5985115,53.9207658 41.2511406,53.7805896 41.0572473,53.5007489 C40.8623308,53.2209081 40.8208918,52.886327 40.9319073,52.4944475 C41.0081345,52.2258618 41.1411484,51.9782513 41.3299258,51.7505929 C41.5207496,51.5234461 41.7519891,51.3474584 42.0256908,51.2246764 C42.2978577,51.1003595 42.5956042,51.0384569 42.9168839,51.0384569 C43.3440632,51.0384569 43.6581806,51.1745404 43.8592363,51.448242 L43.9579735,51.0962668 L44.5120276,51.0962668 L43.8203553,53.5345139 C43.6960384,53.9734598 43.5517695,54.2850193 43.384479,54.4681692 C43.2182116,54.6513191 42.9956691,54.795588 42.7168515,54.9019991 C42.4395687,55.0084103 42.1193121,55.0611042 41.7565934,55.0611042 C41.3253214,55.0611042 40.9989258,54.9859002 40.7763833,54.834469 C40.5528176,54.6845726 40.4893802,54.4574258 40.5840247,54.1545633" id="Fill-47" fill="#FEFDFD"></path>
                <path d="M44.2137695,53.92051 L45.3162501,50.0293418 L45.9270908,50.0293418 L45.5316303,51.4234298 C45.8897446,51.1666107 46.2862284,51.0382011 46.7215931,51.0382011 C46.9896673,51.0382011 47.2096518,51.0796401 47.383593,51.1620064 C47.5575343,51.2443727 47.6659918,51.3574345 47.7110119,51.5032382 C47.7539856,51.6475071 47.7371031,51.858283 47.6588295,52.134031 L47.1523535,53.92051 L46.5420243,53.92051 L47.0474771,52.1330078 C47.1165421,51.8935828 47.1001711,51.71913 46.9968295,51.6106725 C46.8955343,51.5027266 46.7231279,51.4479863 46.4806333,51.4479863 C46.2990182,51.4479863 46.1179146,51.4848209 45.9373227,51.5579785 C45.7567307,51.6311362 45.6139966,51.7314082 45.510655,51.8572598 C45.4068018,51.9825998 45.3239239,52.1565411 45.2620213,52.3775488 L44.823587,53.92051 L44.2137695,53.92051 Z" id="Fill-49" fill="#FEFDFD"></path>
                <path d="M50.3898095,52.501661 C50.1457802,52.5722607 49.7927817,52.6321169 49.332349,52.6817413 C49.0704139,52.7103905 48.8821481,52.7421092 48.7675515,52.777409 C48.6519317,52.8121973 48.5567756,52.8643797 48.4805484,52.932933 C48.4038097,53.0009747 48.3536736,53.0761787 48.330652,53.1590566 C48.2938174,53.2869546 48.3270709,53.3923425 48.4268313,53.4777784 C48.5286381,53.5627026 48.6974634,53.6056764 48.9384232,53.6056764 C49.1763135,53.6056764 49.3993675,53.5662838 49.6075855,53.4849407 C49.8158034,53.4056439 49.9825823,53.2951401 50.1089455,53.1549639 C50.2066596,53.047018 50.2844216,52.8874013 50.3447894,52.6766254 L50.3898095,52.501661 Z M50.1365715,53.5693533 C49.8695205,53.7187382 49.6224216,53.8246377 49.39374,53.8865403 C49.1645469,53.9474198 48.9307493,53.9791385 48.6887664,53.9791385 C48.2897247,53.9791385 48.004768,53.9029113 47.8328731,53.7509685 C47.6614898,53.601072 47.6082842,53.4071787 47.6758143,53.1728696 C47.7146953,53.0342282 47.7898993,52.9093998 47.9039843,52.7942916 C48.0165346,52.6812298 48.1480137,52.5896548 48.2994449,52.5205899 C48.4508761,52.451525 48.6130508,52.3998542 48.7880152,52.3635312 C48.9154016,52.3394863 49.1046906,52.3164647 49.3553706,52.2919083 C49.8654278,52.2468882 50.2465638,52.1921479 50.4992902,52.1281989 C50.5212886,52.0622035 50.5340784,52.0212762 50.5391944,52.003882 C50.5934231,51.8099887 50.573471,51.6733937 50.4783149,51.5946085 C50.3524633,51.4866626 50.1324788,51.4329455 49.8204077,51.4329455 C49.5293119,51.4329455 49.3042114,51.4733612 49.1425484,51.552658 C48.9813969,51.6319547 48.8386628,51.7721309 48.7153691,51.9752329 L48.1403398,51.9082144 C48.2498205,51.7081819 48.3859039,51.5465189 48.5470554,51.4227136 C48.7066721,51.29942 48.91489,51.2047755 49.1701744,51.1382685 C49.4259703,51.0717616 49.7083691,51.0385081 50.0199286,51.0385081 C50.3299533,51.0385081 50.573471,51.0666456 50.7504818,51.1234323 C50.9280042,51.1807306 51.0497631,51.2523535 51.11627,51.3383009 C51.1832886,51.4237368 51.2160305,51.5321943 51.2150073,51.6631618 C51.2119377,51.7445049 51.1807306,51.8918434 51.121386,52.1031309 L50.9413056,52.738528 C50.8159656,53.1810551 50.748947,53.461919 50.7407616,53.5795852 C50.7320645,53.6982745 50.7499702,53.8118479 50.792944,53.9203054 L50.1662438,53.9203054 C50.1273629,53.820545 50.1166194,53.7033904 50.1365715,53.5693533 L50.1365715,53.5693533 Z" id="Fill-51" fill="#FEFDFD"></path>
                <path d="M52.0779606,50.5701968 L52.2324613,50.0289326 L52.8427905,50.0289326 L52.6882897,50.5701968 L52.0779606,50.5701968 Z M51.1289575,53.9206124 L51.9290873,51.0961133 L52.5399281,51.0961133 L51.7397983,53.9206124 L51.1289575,53.9206124 Z" id="Fill-53" fill="#FEFDFD"></path>
                <polygon id="Fill-55" fill="#FEFDFD" points="52.4292196 53.92051 52.5821856 53.3792458 53.2825549 53.3792458 53.1290773 53.92051"></polygon>
                <path d="M56.4219899,52.8818761 L57.0052047,52.9473599 C56.848146,53.2701744 56.6082094,53.5223892 56.2864181,53.7045159 C55.9641151,53.8876658 55.6060008,53.9792408 55.2125866,53.9792408 C54.7173656,53.9792408 54.3561817,53.852366 54.1280117,53.6011744 C53.8988185,53.3494711 53.8512405,52.9887988 53.9842544,52.5191574 C54.0696902,52.2157834 54.2098664,51.949244 54.404783,51.7215856 C54.5971415,51.4939272 54.8432172,51.3230555 55.1384058,51.2089705 C55.4346175,51.0959087 55.7385031,51.0380988 56.0485278,51.0380988 C56.4409188,51.0380988 56.7391769,51.1163724 56.9443253,51.2708731 C57.1499852,51.4248623 57.2466761,51.64587 57.2364443,51.9308267 L56.6240687,51.9963105 C56.6204876,51.810091 56.5596081,51.6694032 56.4424536,51.5747587 C56.3247874,51.4806258 56.1641476,51.4330478 55.9600224,51.4330478 C55.6515325,51.4330478 55.3757844,51.5189952 55.1353362,51.6908901 C54.8928416,51.862785 54.7204352,52.1339287 54.6155588,52.5053444 C54.5081245,52.8828993 54.5234723,53.1571126 54.6600673,53.3269611 C54.7981971,53.4983444 55.0166469,53.5842918 55.3154166,53.5842918 C55.5563764,53.5842918 55.7717566,53.5264819 55.9651383,53.4108622 C56.1580085,53.2967772 56.3104629,53.1202779 56.4219899,52.8818761" id="Fill-57" fill="#FEFDFD"></path>
                <path d="M57.6280679,52.5066746 C57.5257495,52.8663237 57.5513291,53.1359327 57.7027603,53.3149898 C57.8541915,53.494047 58.0849195,53.5840872 58.3908514,53.5840872 C58.6967834,53.5840872 58.975601,53.4935354 59.2283274,53.3139666 C59.482077,53.1343979 59.6616458,52.8601846 59.7660105,52.4913268 C59.8637246,52.1439559 59.8366102,51.8804861 59.6846674,51.7019405 C59.5306783,51.5223717 59.3030198,51.4328431 59.000669,51.4328431 C58.6932023,51.4328431 58.4138731,51.5223717 58.1601235,51.7004057 C57.9073971,51.8789513 57.7303863,52.1475371 57.6280679,52.5066746 M57.0003446,52.508721 C57.1481947,51.9879204 57.4438948,51.6011569 57.8869334,51.3509884 C58.2568144,51.1422589 58.6655763,51.0384058 59.1121961,51.0384058 C59.609975,51.0384058 59.979856,51.1652806 60.2233737,51.4185186 C60.4668915,51.671245 60.525213,52.022197 60.3993613,52.4688168 C60.2960198,52.8310239 60.1461233,53.1149574 59.9476257,53.3231753 C59.749128,53.53037 59.4999827,53.6920331 59.2007015,53.8066297 C58.9019318,53.9212263 58.5949766,53.9790361 58.2793244,53.9790361 C57.77336,53.9790361 57.3993863,53.8521614 57.1594497,53.5999465 C56.9190015,53.3482433 56.8657959,52.9834783 57.0003446,52.508721" id="Fill-59" fill="#FEFDFD"></path>
                <path d="M60.2854298,53.92051 L61.0855596,51.0965226 L61.6314282,51.0965226 L61.5168316,51.5006802 C61.6687744,51.3615272 61.8514127,51.2494886 62.0632118,51.1650759 C62.2755224,51.0806633 62.5001113,51.0382011 62.7405595,51.0382011 C63.0065873,51.0382011 63.2142936,51.0816864 63.3595857,51.1691687 C63.505901,51.2561393 63.5928716,51.3773866 63.6189628,51.5344453 C63.998564,51.2039569 64.4180694,51.0382011 64.8769674,51.0382011 C65.2361049,51.0382011 65.4893429,51.1164747 65.6392393,51.2699523 C65.7886242,51.4249646 65.8182965,51.663878 65.7272331,51.9856694 L65.178295,53.92051 L64.5674542,53.92051 L65.0708607,52.1468208 C65.1250894,51.955997 65.1440183,51.8188904 65.1271358,51.7355009 C65.1117881,51.6510882 65.0580709,51.5830465 64.9685423,51.5323989 C64.8795253,51.4807281 64.7623708,51.4551485 64.6232178,51.4551485 C64.3674218,51.4551485 64.1372054,51.5211439 63.9320571,51.652623 C63.7269087,51.7835906 63.5821282,51.994878 63.5002735,52.2839275 L63.0367712,53.92051 L62.4269536,53.92051 L62.9446847,52.0915689 C63.0050525,51.8792582 62.9999366,51.7196416 62.9298485,51.6142536 C62.8612952,51.5078425 62.7129335,51.4551485 62.4868099,51.4551485 C62.3159382,51.4551485 62.1466012,51.49096 61.9803339,51.5615597 C61.8135549,51.6316478 61.6790062,51.7355009 61.5751531,51.8710728 C61.4702767,52.0076678 61.3827945,52.2036075 61.3101485,52.4599151 L60.8952474,53.92051 L60.2854298,53.92051 Z" id="Fill-61" fill="#FEFDFD"></path>
            </g>
        </g>
    </g>
</svg>