<?xml version="1.0" encoding="UTF-8"?>
<svg width="27px" height="12px" viewBox="0 0 27 12" version="1.1" xmlns="http://www.w3.org/2000/svg" xmlns:xlink="http://www.w3.org/1999/xlink">
    <!-- Generator: Sketch 40.3 (33839) - http://www.bohemiancoding.com/sketch -->
    <title>切图/赛事/轨迹-船-医疗船@1x</title>
    <desc>Created with Sketch.</desc>
    <defs></defs>
    <g id="素材和切图" stroke="none" stroke-width="1" fill="none" fill-rule="evenodd">
        <g id="中帆联/切图/" transform="translate(-170.000000, -1306.000000)">
            <g id="切图/赛事/轨迹-船-医疗船" transform="translate(170.000000, 1299.305854)">
                <path d="M0.521353545,9.60954132 C3.44606713,8.11577405 7.64584305,7.17939877 12.3121836,7.17939877 C18.1340764,7.17939877 23.2297172,8.6369556 26.0289524,10.8160598 C23.597237,13.4256553 18.8518599,15.7137045 13.1588263,16.7175399 C8.55566458,17.5292016 4.24753545,17.3400173 1.08702564,16.3812077 C0.755797147,15.4111758 0.527341558,14.3893881 0.415697387,13.3271648 C0.282325963,12.0582205 0.324010618,10.8110616 0.521353545,9.60954132 Z" id="Oval-69-Copy-9" fill="#FFFFFF" transform="translate(13.442778, 12.186395) rotate(-176.000000) translate(-13.442778, -12.186395) "></path>
                <path d="M0.998918282,9.33480988 C3.27711708,9.96904912 5.19075212,10.8608342 6.55718597,11.924554 C5.3456603,13.2247028 3.55983364,14.4450368 1.36863798,15.4665043 C1.14311368,14.6865358 0.983027747,13.8760412 0.895211926,13.0405295 C0.762280897,11.7757753 0.803251778,10.5326629 0.998918282,9.33480988 Z" id="Oval-69-Copy-13" fill="#D0011B" transform="translate(3.687540, 12.400657) rotate(-176.000000) translate(-3.687540, -12.400657) "></path>
                <text id="+" font-family="PingFangSC-Regular, PingFang SC" font-size="16" font-weight="normal" fill="#D0011B">
                    <tspan x="12.16" y="17">+</tspan>
                </text>
            </g>
        </g>
    </g>
</svg>