<?xml version="1.0" encoding="UTF-8"?>
<svg width="29px" height="28px" viewBox="0 0 29 28" version="1.1" xmlns="http://www.w3.org/2000/svg" xmlns:xlink="http://www.w3.org/1999/xlink">
    <!-- Generator: Sketch 40.3 (33839) - http://www.bohemiancoding.com/sketch -->
    <title>切图/赛事/主页菜单-船位跟踪</title>
    <desc>Created with Sketch.</desc>
    <defs></defs>
    <g id="切图" stroke="none" stroke-width="1" fill="none" fill-rule="evenodd">
        <g id="中帆联/切图/" transform="translate(-535.000000, -764.000000)" stroke="#55CCFF">
            <g id="切图/赛事/主页菜单-船位跟踪" transform="translate(536.000000, 764.262147)">
                <path d="M20.3344951,4.78095118 C20.0356438,6.63247123 18.292797,7.89308062 16.4412769,7.59422925 C14.5897569,7.2967363 13.3291475,5.55388948 13.6279988,3.70236944 C13.9254918,1.85084939 15.6683386,0.590240001 17.5212171,0.889091365 C19.3713787,1.18658431 20.6306297,2.92943114 20.3344951,4.78095118 L20.3344951,4.78095118 Z" id="Stroke-168-Copy"></path>
                <path d="M8.0410247,15.0423186 C7.68647831,17.248385 5.61081974,18.7494339 3.4047533,18.3935291 C1.19868687,18.0389827 -0.303720446,15.9633242 0.0521843605,13.7572577 C0.408089167,11.5511913 2.48238932,10.0515008 4.68845576,10.4060472 C6.89452219,10.7605936 8.39557109,12.8362522 8.0410247,15.0423186 L8.0410247,15.0423186 Z" id="Stroke-170-Copy"></path>
                <path d="M26.7676269,21.8922202 C26.3057657,24.7639101 23.6038776,26.7173113 20.7308293,26.2554501 C17.8591394,25.7935889 15.9057382,23.0917009 16.3689578,20.220011 C16.830819,17.3469626 19.532707,15.3935615 22.4043969,15.8554227 C25.2760869,16.3172839 27.2308465,19.0205303 26.7676269,21.8922202 L26.7676269,21.8922202 Z" id="Stroke-172-Copy"></path>
                <polygon id="Stroke-174-Copy" points="6.79207647 12.0779815 14.8148772 6.27890663"></polygon>
                <path d="M6.79207647,17.146229 L16.8878189,20.0776892" id="Stroke-176-Copy"></path>
            </g>
        </g>
    </g>
</svg>