<?xml version="1.0" encoding="UTF-8"?>
<svg width="24px" height="30px" viewBox="0 0 24 30" version="1.1" xmlns="http://www.w3.org/2000/svg" xmlns:xlink="http://www.w3.org/1999/xlink">
    <!-- Generator: Sketch 40.3 (33839) - http://www.bohemiancoding.com/sketch -->
    <title>切图/赛事/主页菜单-关于赛事@1x</title>
    <desc>Created with Sketch.</desc>
    <defs></defs>
    <g id="素材和切图" stroke="none" stroke-width="1" fill="none" fill-rule="evenodd" stroke-linecap="round" stroke-linejoin="round">
        <g id="中帆联/切图/" transform="translate(-41.000000, -765.000000)" stroke="#B8E986">
            <g id="切图/赛事/主页菜单-关于赛事" transform="translate(42.000000, 766.262147)">
                <path d="M13.886023,27.6720666 L13.886023,21.6358124 C13.886023,20.4235626 14.8691534,19.4404322 16.0800146,19.4404322 L22.119046,19.4404322 L13.886023,27.6720666 L13.886023,27.6720666 Z" id="Stroke-208-Copy"></path>
                <path d="M21.9524138,19.2085356 L13.7207793,27.44017 L2.19399163,27.44017 C0.983130428,27.44017 0,26.4584282 0,25.2447898 L0,2.19538024 C0,0.983130428 0.983130428,0 2.19399163,0 L19.7570335,0 C20.9692833,0 21.9524138,0.983130428 21.9524138,2.19538024 L21.9524138,19.2085356 L21.9524138,19.2085356 Z" id="Stroke-210-Copy"></path>
                <path d="M5.5544092,6.9430115 L17.4713941,6.9430115" id="Stroke-212-Copy"></path>
                <path d="M5.5544092,11.1088184 L17.4713941,11.1088184" id="Stroke-214-Copy"></path>
                <path d="M5.5544092,15.2746253 L17.4713941,15.2746253" id="Stroke-216-Copy"></path>
            </g>
        </g>
    </g>
</svg>