<?xml version="1.0" encoding="UTF-8"?>
<svg width="20px" height="11px" viewBox="0 0 20 11" version="1.1" xmlns="http://www.w3.org/2000/svg" xmlns:xlink="http://www.w3.org/1999/xlink">
    <!-- Generator: Sketch 40.3 (33839) - http://www.bohemiancoding.com/sketch -->
    <title>切图/常用/更多</title>
    <desc>Created with Sketch.</desc>
    <defs></defs>
    <g id="切图" stroke="none" stroke-width="1" fill="none" fill-rule="evenodd">
        <g id="中帆联/切图/" transform="translate(-33.000000, -131.000000)" stroke="#55CCFF">
            <g id="切图/常用/更多" transform="translate(33.000000, 132.000000)">
                <path d="M0,2.29350342e-05 C1.66666667,2.29350342e-05 1.66666667,0.824973247 3.33333333,0.824973247 C5,0.824973247 5.02011922,-0.00502526609 6.66666667,2.29350342e-05 C8.34674237,0.00512863966 8.30655733,0.80792849 10,0.824973247 C11.5402568,0.841476784 11.7383262,0.0728503506 13.3333333,2.29350342e-05 C15.1139474,0.067158594 15,0.824973247 16.6666667,0.824973247 C18.3333333,0.824973247 18.3150857,-0.00208934856 20,2.29350342e-05" id="Path-2-Copy"></path>
                <path d="M0,4.1666896 C1.66666667,4.1666896 1.66666667,4.99163991 3.33333333,4.99163991 C5,4.99163991 5.02011922,4.1616414 6.66666667,4.1666896 C8.34674237,4.17179531 8.30655733,4.97459516 10,4.99163991 C11.5402568,5.00814345 11.7383262,4.23951702 13.3333333,4.1666896 C15.1139474,4.23382526 15,4.99163991 16.6666667,4.99163991 C18.3333333,4.99163991 18.3150857,4.16457732 20,4.1666896" id="Path-2-Copy-2"></path>
                <path d="M0,8.33335627 C1.66666667,8.33335627 1.66666667,9.15830658 3.33333333,9.15830658 C5,9.15830658 5.02011922,8.32830807 6.66666667,8.33335627 C8.34674237,8.33846197 8.30655733,9.14126182 10,9.15830658 C11.5402568,9.17481012 11.7383262,8.40618368 13.3333333,8.33335627 C15.1139474,8.40049193 15,9.15830658 16.6666667,9.15830658 C18.3333333,9.15830658 18.3150857,8.33124398 20,8.33335627" id="Path-2-Copy-3"></path>
            </g>
        </g>
    </g>
</svg>