<?xml version="1.0" encoding="UTF-8"?>
<svg width="32px" height="32px" viewBox="0 0 32 32" version="1.1" xmlns="http://www.w3.org/2000/svg" xmlns:xlink="http://www.w3.org/1999/xlink">
    <!-- Generator: Sketch 40.3 (33839) - http://www.bohemiancoding.com/sketch -->
    <title>切图/赛事/主页菜单-航海气象</title>
    <desc>Created with Sketch.</desc>
    <defs></defs>
    <g id="切图" stroke="none" stroke-width="1" fill="none" fill-rule="evenodd">
        <g id="中帆联/切图/" transform="translate(-448.000000, -764.000000)" stroke="#F3CD56" stroke-width="1.2">
            <g id="切图/赛事/主页菜单-航海气象" transform="translate(449.000000, 764.262147)">
                <path d="M28.9795263,28.9795263 C28.2198951,29.7737331 27.211334,30.1870065 26.5645657,30.1870065 L6.0374013,30.1870065 C4.23708793,30.1870065 2.41496052,28.3980078 2.41496052,26.5645657 C2.41496052,24.2158477 3.91918657,22.5176949 6.0374013,21.7346447 C6.11111073,22.2223295 6.28773008,22.1147434 6.0374013,21.7346447 C6.51200434,21.7910589 6.54915902,21.5901125 6.0374013,21.7346447 C6.45694541,21.2172666 6.43399298,21.029818 6.0374013,20.5271644 C6.43399298,19.6644146 7.32119557,18.6861489 8.45236183,18.1122039 C8.50886644,18.5243728 8.54911734,18.5012147 8.45236183,18.1122039 C8.65788901,18.5012147 8.67229318,18.4797107 8.45236183,18.1122039 C8.804825,18.4953259 8.81424829,18.4935395 8.45236183,18.1122039 C9.54576469,18.4935395 10.2216164,18.8094164 10.8673223,19.3196842 C10.8395149,19.555042 11.0958283,19.6486009 10.8673223,19.3196842 C11.5990992,19.5603353 11.8066135,19.3855907 12.0748026,19.3196842 C12.862291,16.3617342 15.5303605,14.4897631 18.1122039,14.4897631 C22.3987934,14.4897631 25.5473159,17.5832925 25.3570855,21.7346447 C25.5473159,21.4147062 25.547989,21.4430253 25.3570855,21.7346447 C25.5492006,21.4900694 25.5500083,21.5088605 25.3570855,21.7346447 C25.5417292,21.9085037 25.8475823,22.2237852 26.5645657,21.7346447 C27.2956051,22.2620953 28.2892236,22.6882711 28.9795263,22.942125 C29.7768916,24.1810443 30.1870065,25.1675807 30.1870065,26.5645657 C30.1870065,27.2699421 29.7612758,28.2683884 28.9795263,28.9795263 L28.9795263,28.9795263 Z M19.3196842,12.0748026 C19.3101108,12.2188536 19.3196842,12.0165536 19.3196842,12.0748026 C19.3196842,7.96292956 16.0696523,4.82992104 12.0748026,4.82992104 C8.07995294,4.82992104 4.82992104,7.96292956 4.82992104,12.0748026 C4.82992104,13.7805428 5.66266844,15.6000391 7.24488156,16.9047237 M15.6972434,3.62244078 L15.6972434,3.62244078 L16.9047237,0 L15.6972434,3.62244078 Z M20.5271644,8.45236183 L24.1496052,7.24488156 L20.5271644,8.45236183 Z M0,16.9047237 L3.62244078,15.6972434 L0,16.9047237 Z M0,7.24488156 L3.62244078,8.45236183 L0,7.24488156 Z M7.24488156,0 L8.45236183,3.62244078 L7.24488156,0 Z" id="Page-1-Copy-13"></path>
            </g>
        </g>
    </g>
</svg>