<?xml version="1.0" encoding="UTF-8"?>
<svg width="15px" height="14px" viewBox="0 0 15 14" version="1.1" xmlns="http://www.w3.org/2000/svg" xmlns:xlink="http://www.w3.org/1999/xlink">
    <!-- Generator: Sketch 40.3 (33839) - http://www.bohemiancoding.com/sketch -->
    <title>切图/我的菜单/我的购买</title>
    <desc>Created with Sketch.</desc>
    <defs></defs>
    <g id="切图" stroke="none" stroke-width="1" fill="none" fill-rule="evenodd">
        <g id="中帆联/切图/" transform="translate(-176.000000, -638.000000)" stroke="#FFFFFF">
            <g id="切图/我的菜单/我的购买" transform="translate(176.000000, 638.500000)">
                <path d="M11.6666667,9.26988636 L3.58974359,9.26988636 C3.34162051,9.26988636 3.14102564,9.06351136 3.14102564,8.80823864 L1.43589744,0.0369318182 L0,0.0369318182" id="Stroke-1"></path>
                <path d="M5.11776821,7.42329545 L5.11776821,1.88352273" id="Stroke-3"></path>
                <path d="M7.8100759,7.42329545 L7.8100759,1.88352273" id="Stroke-5"></path>
                <path d="M10.5023836,7.42329545 L10.5023836,1.88352273" id="Stroke-7"></path>
                <path d="M1.79779385,1.88352273 L13.9859067,1.88352273 L12.7460092,6.96164773 C12.7460092,7.02583523 12.7334451,7.08632955 12.7109733,7.14121023 C12.66524,7.25200568 12.5795169,7.34064205 12.4722554,7.38725 C12.4184092,7.4108125 12.3591785,7.42329545 12.2972913,7.42329545 L2.87421436,7.42329545" id="Stroke-9"></path>
                <path d="M4.48717949,10.1931818 C5.23068718,10.1931818 5.83333333,10.8136364 5.83333333,11.578125 C5.83333333,12.3426136 5.23068718,12.9630682 4.48717949,12.9630682 C3.74367179,12.9630682 3.14102564,12.3426136 3.14102564,11.578125 C3.14102564,10.8136364 3.74367179,10.1931818 4.48717949,10.1931818 Z" id="Stroke-11"></path>
                <path d="M10.7692308,10.1931818 C11.5127385,10.1931818 12.1153846,10.8136364 12.1153846,11.578125 C12.1153846,12.3426136 11.5127385,12.9630682 10.7692308,12.9630682 C10.0257231,12.9630682 9.42307692,12.3426136 9.42307692,11.578125 C9.42307692,10.8136364 10.0257231,10.1931818 10.7692308,10.1931818 Z" id="Stroke-13"></path>
            </g>
        </g>
    </g>
</svg>