<?xml version="1.0" encoding="UTF-8"?>
<svg width="31px" height="27px" viewBox="0 0 31 27" version="1.1" xmlns="http://www.w3.org/2000/svg" xmlns:xlink="http://www.w3.org/1999/xlink">
    <!-- Generator: Sketch 40.3 (33839) - http://www.bohemiancoding.com/sketch -->
    <title>切图/赛事/主页菜单-帆赛助手</title>
    <desc>Created with Sketch.</desc>
    <defs></defs>
    <g id="切图" stroke="none" stroke-width="1" fill="none" fill-rule="evenodd" stroke-linecap="round" stroke-linejoin="round">
        <g id="中帆联/切图/" transform="translate(-448.000000, -846.000000)" stroke="#50E3C2">
            <g id="切图/赛事/主页菜单-帆赛助手" transform="translate(449.000000, 847.262147)">
                <path d="M16.2447982,14.9097667 C16.2447982,15.9022111 15.4387805,16.7101 14.4434708,16.7101 C13.4518248,16.7101 12.6470283,15.9022111 12.6470283,14.9097667 C12.6470283,13.9148778 13.4518248,13.1094333 14.4434708,13.1094333 C15.4387805,13.1094333 16.2447982,13.9148778 16.2447982,14.9097667 L16.2447982,14.9097667 Z" id="Stroke-1364"></path>
                <path d="M9.17028319,9.48016667 L13.4043186,13.7163889" id="Stroke-1366"></path>
                <path d="M24.7410796,24.761 C27.3618584,22.1356667 28.984885,18.5093333 28.984885,14.5041111 C28.984885,6.49366667 22.4964425,0 14.4924425,0 C6.48844248,0 0,6.49366667 0,14.5041111 C0,18.5447778 1.64989381,22.1992222 4.31463717,24.8294444" id="Stroke-1368"></path>
                <path d="M4.25662832,24.8032889 L6.65147788,22.4077333" id="Stroke-1370"></path>
                <path d="M22.3294991,6.71403333 L24.7255699,4.31847778" id="Stroke-1372"></path>
                <path d="M14.5537487,3.41207778 L14.5537487,0.0228555556" id="Stroke-1374"></path>
                <path d="M3.70084248,14.3195556 L0.316789381,14.3195556" id="Stroke-1376"></path>
                <path d="M28.7875327,14.3195556 L25.4034796,14.3195556" id="Stroke-1378"></path>
                <path d="M6.65147788,6.71403333 L4.25662832,4.31847778" id="Stroke-1380"></path>
                <path d="M24.7255699,24.8032889 L22.3294991,22.4065111" id="Stroke-1382"></path>
            </g>
        </g>
    </g>
</svg>