<?xml version="1.0" encoding="UTF-8"?>
<svg width="15px" height="14px" viewBox="0 0 15 14" version="1.1" xmlns="http://www.w3.org/2000/svg" xmlns:xlink="http://www.w3.org/1999/xlink">
    <!-- Generator: Sketch 40.3 (33839) - http://www.bohemiancoding.com/sketch -->
    <title>切图/我的菜单/我的摄影作品-无</title>
    <desc>Created with Sketch.</desc>
    <defs></defs>
    <g id="切图" stroke="none" stroke-width="1" fill="none" fill-rule="evenodd">
        <g id="中帆联/切图/" transform="translate(-175.000000, -511.000000)" stroke="#626262">
            <g id="切图/我的菜单/我的摄影作品-无" transform="translate(176.000000, 511.000000)">
                <g id="切图/我的菜单/我的摄影作品-copy">
                    <path d="M3.2254413,5.33816195 C2.33484464,5.33816195 1.61272065,4.6161362 1.61272065,3.7254413 C1.61272065,2.83464817 2.33464817,2.11262242 3.2254413,2.11262242 C4.11623443,2.11262242 4.83826019,2.83464817 4.83826019,3.7254413 C4.83826019,4.6161362 4.11623443,5.33816195 3.2254413,5.33816195 Z M11.2890446,13.4017652 L1.61272065,13.4017652 C0.722025753,13.4017652 0,12.6796412 0,11.7888481 L0,2.11262242 C0,1.22212399 0.722025753,0.5 1.61272065,0.5 L11.2889463,0.5 C12.1796412,0.5 12.9018634,1.22202575 12.9018634,2.11262242 L12.9018634,11.7889463 C12.9017652,12.6796412 12.1796412,13.4017652 11.2890446,13.4017652 Z" id="Page-1"></path>
                    <polyline id="Path" points="0 11.5874139 3.65148561 8.23868789 5.50409564 10.1153654 10.0419538 5.5 12.7806417 8.29713759"></polyline>
                </g>
            </g>
        </g>
    </g>
</svg>