<?xml version="1.0" encoding="UTF-8"?>
<svg width="15px" height="14px" viewBox="0 0 15 14" version="1.1" xmlns="http://www.w3.org/2000/svg" xmlns:xlink="http://www.w3.org/1999/xlink">
    <!-- Generator: Sketch 40.3 (33839) - http://www.bohemiancoding.com/sketch -->
    <title>切图/我的菜单/在线客服</title>
    <desc>Created with Sketch.</desc>
    <defs></defs>
    <g id="切图" stroke="none" stroke-width="1" fill="none" fill-rule="evenodd">
        <g id="中帆联/切图/" transform="translate(-43.000000, -636.000000)" stroke="#FFFFFF">
            <g id="切图/我的菜单/在线客服-无" transform="translate(44.000000, 636.500000)">
                <path d="M0.0424836601,6.26535823 L0.0424836601,5.45738354 C0.50479085,2.39785823 3.23181699,0.0411556962 6.51750327,0.0411556962 C9.80327451,0.0411556962 12.5304706,2.39777595 12.9928627,5.45721899 L12.9928627,6.26535823" id="Stroke-1"></path>
                <path d="M11.3670641,9.94365886 L7.85094641,12.2161905" id="Stroke-3"></path>
                <path d="M0.737337908,5.58498924 L1.60859281,5.58498924 C1.99145556,5.58498924 2.30303072,5.88670443 2.30303072,6.25761582 L2.30303072,9.27098291 C2.30303072,9.64197658 1.99145556,9.94369177 1.60859281,9.94369177 L0.737337908,9.94369177 C0.354220261,9.94369177 0.0424751634,9.64197658 0.0424751634,9.27098291 L0.0424751634,6.25761582 C0.0424751634,5.88670443 0.354220261,5.58498924 0.737337908,5.58498924 Z" id="Stroke-5"></path>
                <path d="M7.93368758,12.5583291 C7.93368758,12.7960316 7.73375948,12.9893861 7.48786405,12.9893861 L5.99396863,12.9893861 C5.7483281,12.9893861 5.5486549,12.7960316 5.5486549,12.5583291 L5.5486549,12.4653544 C5.5486549,12.2277342 5.7483281,12.0342975 5.99396863,12.0342975 L7.48786405,12.0342975 C7.73375948,12.0342975 7.93368758,12.2277342 7.93368758,12.4653544 L7.93368758,12.5583291 Z" id="Stroke-7"></path>
                <path d="M13.9928882,9.27102405 C13.9928882,9.64193544 13.681398,9.94365063 13.2985353,9.94365063 L12.4267706,9.94365063 C12.043483,9.94365063 11.731483,9.64193544 11.731483,9.27102405 L11.731483,6.25765696 C11.731483,5.88666329 12.043483,5.58503038 12.4267706,5.58503038 L13.2985353,5.58503038 C13.681398,5.58503038 13.9928882,5.88666329 13.9928882,6.25765696 L13.9928882,9.27102405 Z" id="Stroke-9"></path>
            </g>
        </g>
    </g>
</svg>