<?xml version="1.0" encoding="UTF-8"?>
<svg width="24px" height="25px" viewBox="0 0 24 25" version="1.1" xmlns="http://www.w3.org/2000/svg" xmlns:xlink="http://www.w3.org/1999/xlink">
    <!-- Generator: Sketch 40.3 (33839) - http://www.bohemiancoding.com/sketch -->
    <title>切图/常用/图片-放大</title>
    <desc>Created with Sketch.</desc>
    <defs></defs>
    <g id="切图" stroke="none" stroke-width="1" fill="none" fill-rule="evenodd">
        <g id="中帆联/切图/" transform="translate(-339.000000, -38.000000)">
            <g id="切图/常用/图片-放大" transform="translate(340.000000, 39.000000)">
                <path d="M11.2091579,10.2498898 L11.2091579,4.45384825 C11.2091579,4.20341147 11.0055873,4 10.7544702,4 C10.5106971,4 10.2997824,4.20319478 10.2997824,4.45384825 L10.2997824,10.2498898 L4.50374088,10.2498898 C4.2533041,10.2498898 4.04989262,10.4534604 4.04989262,10.7045775 C4.04989262,10.9483506 4.25308741,11.1592653 4.50374088,11.1592653 L10.2997824,11.1592653 L10.2997824,17.1867842 C10.2997824,17.437221 10.5033531,17.6406325 10.7544702,17.6406325 C10.9982432,17.6406325 11.2091579,17.4374377 11.2091579,17.1867842 L11.2091579,11.1592653 L17.2366769,11.1592653 C17.4871136,11.1592653 17.6905251,10.9556947 17.6905251,10.7045775 C17.6905251,10.4608045 17.4873303,10.2498898 17.2366769,10.2498898 L11.2091579,10.2498898 Z" id="Combined-Shape" fill="#FFFFFF"></path>
                <path d="M21.947,22.848 L18.11,19.04 C16.188,20.744 13.659,21.778 10.888,21.778 C4.876,21.778 0,16.903 0,10.89 C0,4.875 4.876,0 10.888,0 C16.904,0 21.778,4.875 21.778,10.89 C21.778,13.017 21.169,15.003 20.112,16.679" id="Stroke-954" stroke="#FFFFFF" stroke-linecap="round" stroke-linejoin="round"></path>
            </g>
        </g>
    </g>
</svg>