<?xml version="1.0" encoding="UTF-8"?>
<svg width="24px" height="25px" viewBox="0 0 24 25" version="1.1" xmlns="http://www.w3.org/2000/svg" xmlns:xlink="http://www.w3.org/1999/xlink">
    <!-- Generator: Sketch 40.3 (33839) - http://www.bohemiancoding.com/sketch -->
    <title>切图/常用/图片-全屏显示</title>
    <desc>Created with Sketch.</desc>
    <defs></defs>
    <g id="切图" stroke="none" stroke-width="1" fill="none" fill-rule="evenodd">
        <g id="中帆联/切图/" transform="translate(-371.000000, -38.000000)" stroke="#FFFFFF">
            <g id="切图/常用/图片-全屏显示" transform="translate(372.000000, 39.000000)">
                <path d="M21.947,22.848 L18.11,19.04 C16.188,20.744 13.659,21.778 10.888,21.778 C4.876,21.778 0,16.903 0,10.89 C0,4.875 4.876,0 10.888,0 C16.904,0 21.778,4.875 21.778,10.89 C21.778,13.017 21.169,15.003 20.112,16.679" id="Stroke-954" stroke-linecap="round" stroke-linejoin="round"></path>
                <polyline id="Line" stroke-linecap="square" points="15 6 15 9 18 9"></polyline>
                <polyline id="Line-Copy" stroke-linecap="square" transform="translate(16.500000, 14.500000) scale(1, -1) translate(-16.500000, -14.500000) " points="15 13 15 16 18 16"></polyline>
                <polyline id="Line-Copy-3" stroke-linecap="square" transform="translate(5.500000, 7.500000) scale(-1, 1) translate(-5.500000, -7.500000) " points="4 6 4 9 7 9"></polyline>
                <polyline id="Line-Copy-2" stroke-linecap="square" transform="translate(5.500000, 14.500000) scale(-1, -1) translate(-5.500000, -14.500000) " points="4 13 4 16 7 16"></polyline>
            </g>
        </g>
    </g>
</svg>