<?xml version="1.0" encoding="UTF-8"?>
<svg width="28px" height="28px" viewBox="0 0 28 28" version="1.1" xmlns="http://www.w3.org/2000/svg" xmlns:xlink="http://www.w3.org/1999/xlink">
    <!-- Generator: Sketch 40.3 (33839) - http://www.bohemiancoding.com/sketch -->
    <title>切图/赛事/主页菜单-常见问题@1x</title>
    <desc>Created with Sketch.</desc>
    <defs></defs>
    <g id="素材和切图" stroke="none" stroke-width="1" fill="none" fill-rule="evenodd">
        <g id="中帆联/切图/" transform="translate(-256.000000, -845.000000)" stroke="#00B3FF">
            <g id="切图/赛事/主页菜单-常见问题" transform="translate(257.000000, 846.262147)">
                <path d="M26,12.999499 C26,20.1791344 20.17891,26 13,26 C5.81908579,26 1.77635684e-15,20.1791344 1.77635684e-15,12.999499 C1.77635684e-15,5.82086561 5.81908579,0 13,0 C20.17891,0 26,5.82086561 26,12.999499 L26,12.999499 Z" id="Stroke-1168"></path>
                <path d="M8.125,10.7205045 C8.125,8.3901772 9.94364567,6.5 12.187995,6.5 C14.4303643,6.5 16.25,8.3901772 16.25,10.7205045 C16.25,13.0508318 14.4303643,14.941009 12.187995,14.941009 L12.187995,17.875" id="Stroke-3610" stroke-linecap="round" stroke-linejoin="round"></path>
                <path d="M12.1875,20.3125 L12.1875,21.125" id="Stroke-3612" stroke-linecap="round"></path>
            </g>
        </g>
    </g>
</svg>