<?xml version="1.0" encoding="UTF-8"?>
<svg width="27px" height="12px" viewBox="0 0 27 12" version="1.1" xmlns="http://www.w3.org/2000/svg" xmlns:xlink="http://www.w3.org/1999/xlink">
    <!-- Generator: Sketch 40.3 (33839) - http://www.bohemiancoding.com/sketch -->
    <title>切图/赛事/轨迹-船-红色工作船@1x</title>
    <desc>Created with Sketch.</desc>
    <defs></defs>
    <g id="素材和切图" stroke="none" stroke-width="1" fill="none" fill-rule="evenodd">
        <g id="中帆联/切图/" transform="translate(-66.000000, -1324.000000)">
            <g id="切图/赛事/轨迹-船-红色工作船" transform="translate(66.000000, 1323.305854)">
                <path d="M0.521353545,3.60954132 C3.44606713,2.11577405 7.64584305,1.17939877 12.3121836,1.17939877 C18.1340764,1.17939877 23.2297172,2.6369556 26.0289524,4.81605978 C23.597237,7.42565531 18.8518599,9.71370452 13.1588263,10.7175399 C8.55566458,11.5292016 4.24753545,11.3400173 1.08702564,10.3812077 C0.755797147,9.41117575 0.527341558,8.38938813 0.415697387,7.3271648 C0.282325963,6.05822046 0.324010618,4.81106165 0.521353545,3.60954132 Z" id="Oval-69-Copy-11" fill="#FFFFFF" transform="translate(13.442778, 6.186395) rotate(-176.000000) translate(-13.442778, -6.186395) "></path>
                <path d="M0.998918282,3.33480988 C3.27711708,3.96904912 5.19075212,4.86083425 6.55718597,5.92455397 C5.3456603,7.22470278 3.55983364,8.44503682 1.36863798,9.46650431 C1.14311368,8.68653577 0.983027747,7.87604123 0.895211926,7.04052951 C0.762280897,5.77577526 0.803251778,4.5326629 0.998918282,3.33480988 Z" id="Oval-69-Copy-14" fill="#D0011B" transform="translate(3.687540, 6.400657) rotate(-176.000000) translate(-3.687540, -6.400657) "></path>
            </g>
        </g>
    </g>
</svg>