<?xml version="1.0" encoding="UTF-8"?>
<svg width="13px" height="13px" viewBox="0 0 13 13" version="1.1" xmlns="http://www.w3.org/2000/svg" xmlns:xlink="http://www.w3.org/1999/xlink">
    <!-- Generator: Sketch 40.3 (33839) - http://www.bohemiancoding.com/sketch -->
    <title>切图/赛事/小图标-名次</title>
    <desc>Created with Sketch.</desc>
    <defs></defs>
    <g id="切图" stroke="none" stroke-width="1" fill="none" fill-rule="evenodd">
        <g id="中帆联/切图/" transform="translate(-236.000000, -257.000000)" stroke="#9B9B9B" stroke-width="0.8">
            <g id="切图/赛事/小图标-名次" transform="translate(236.000000, 258.000000)">
                <path d="M7.67305957,1.17577143 C7.67305957,1.80205714 7.14979341,2.30948571 6.50468688,2.30948571 C5.85958034,2.30948571 5.33572559,1.80205714 5.33572559,1.17577143 C5.33572559,0.548914286 5.85958034,0.0414857143 6.50468688,0.0414857143 C7.14979341,0.0414857143 7.67305957,0.548914286 7.67305957,1.17577143 L7.67305957,1.17577143 Z" id="Stroke-584"></path>
                <path d="M7.80755487,11.8146857 L7.80755487,8.15354286 L7.86818075,8.15354286 C8.29785938,8.15354286 8.64631108,7.81468571 8.64631108,7.39754286 L8.64631108,4.37297143 C8.64631108,3.95468571 8.29785938,3.6164 7.86818075,3.6164 L5.14178161,3.6164 C4.71151438,3.6164 4.36247408,3.95468571 4.36247408,4.37297143 L4.36247408,7.39754286 C4.36247408,7.81468571 4.71151438,8.15354286 5.14178161,8.15354286 L5.14178161,11.8146857" id="Stroke-586" stroke-linecap="round" stroke-linejoin="round"></path>
                <path d="M11.530573,1.89782857 C11.530573,2.52411429 11.0073068,3.03211429 10.3627889,3.03211429 C9.71768235,3.03211429 9.19382759,2.52411429 9.19382759,1.89782857 C9.19382759,1.27154286 9.71768235,0.763542857 10.3627889,0.763542857 C11.0073068,0.763542857 11.530573,1.27154286 11.530573,1.89782857 L11.530573,1.89782857 Z" id="Stroke-588"></path>
                <path d="M11.6651271,10.1947429 L11.6651271,8.87531429 L11.7263416,8.87531429 C12.1554316,8.87531429 12.5044719,8.53702857 12.5044719,8.11931429 L12.5044719,5.09474286 C12.5044719,4.6776 12.1554316,4.33874286 11.7263416,4.33874286 L9.9140396,4.33874286" id="Stroke-590" stroke-linecap="round" stroke-linejoin="round"></path>
                <path d="M1.38185822,1.89782857 C1.38185822,2.52411429 1.90512438,3.03211429 2.54964231,3.03211429 C3.19533745,3.03211429 3.7186036,2.52411429 3.7186036,1.89782857 C3.7186036,1.27154286 3.19533745,0.763542857 2.54964231,0.763542857 C1.90512438,0.763542857 1.38185822,1.27154286 1.38185822,1.89782857 L1.38185822,1.89782857 Z" id="Stroke-592"></path>
                <path d="M1.24730407,10.1947429 L1.24730407,8.87531429 L1.18608958,8.87531429 C0.756999556,8.87531429 0.407959251,8.53702857 0.407959251,8.11931429 L0.407959251,5.09474286 C0.407959251,4.6776 0.756999556,4.33874286 1.18608958,4.33874286 L2.9983916,4.33874286" id="Stroke-594" stroke-linecap="round" stroke-linejoin="round"></path>
            </g>
        </g>
    </g>
</svg>