<?xml version="1.0" encoding="UTF-8"?>
<svg width="27px" height="27px" viewBox="0 0 27 27" version="1.1" xmlns="http://www.w3.org/2000/svg" xmlns:xlink="http://www.w3.org/1999/xlink">
    <!-- Generator: Sketch 40.3 (33839) - http://www.bohemiancoding.com/sketch -->
    <title>切图/赛事/主页菜单-我的岸队</title>
    <desc>Created with Sketch.</desc>
    <defs></defs>
    <g id="切图" stroke="none" stroke-width="1" fill="none" fill-rule="evenodd">
        <g id="中帆联/切图/" transform="translate(-525.000000, -845.000000)" stroke="#B8E986">
            <g id="切图/赛事/主页菜单-我的岸队" transform="translate(525.000000, 846.262147)">
                <path d="M15.99885,2.54750476 C15.99885,3.90445714 14.9078045,5.00388571 13.5627136,5.00388571 C12.2176227,5.00388571 11.12535,3.90445714 11.12535,2.54750476 C11.12535,1.18931429 12.2176227,0.0898857143 13.5627136,0.0898857143 C14.9078045,0.0898857143 15.99885,1.18931429 15.99885,2.54750476 L15.99885,2.54750476 Z" id="Stroke-584"></path>
                <path d="M16.2792818,25.5984857 L16.2792818,17.6660095 L16.4056909,17.6660095 C17.3016,17.6660095 18.0281455,16.931819 18.0281455,16.0280095 L18.0281455,9.47477143 C18.0281455,8.56848571 17.3016,7.83553333 16.4056909,7.83553333 L10.7209636,7.83553333 C9.82382727,7.83553333 9.09605455,8.56848571 9.09605455,9.47477143 L9.09605455,16.0280095 C9.09605455,16.931819 9.82382727,17.6660095 10.7209636,17.6660095 L10.7209636,25.5984857" id="Stroke-586" stroke-linecap="round" stroke-linejoin="round"></path>
                <path d="M24.0420273,4.1119619 C24.0420273,5.46891429 22.9509818,6.56958095 21.6071182,6.56958095 C20.2620273,6.56958095 19.1697545,5.46891429 19.1697545,4.1119619 C19.1697545,2.75500952 20.2620273,1.65434286 21.6071182,1.65434286 C22.9509818,1.65434286 24.0420273,2.75500952 24.0420273,4.1119619 L24.0420273,4.1119619 Z" id="Stroke-588"></path>
                <path d="M24.3225818,22.0886095 L24.3225818,19.2298476 L24.4502182,19.2298476 C25.3449,19.2298476 26.0726727,18.4968952 26.0726727,17.5918476 L26.0726727,11.0386095 C26.0726727,10.1348 25.3449,9.40060952 24.4502182,9.40060952 L20.6714455,9.40060952" id="Stroke-590" stroke-linecap="round" stroke-linejoin="round"></path>
                <path d="M2.88126818,4.1119619 C2.88126818,5.46891429 3.97231364,6.56958095 5.31617727,6.56958095 C6.66249545,6.56958095 7.75354091,5.46891429 7.75354091,4.1119619 C7.75354091,2.75500952 6.66249545,1.65434286 5.31617727,1.65434286 C3.97231364,1.65434286 2.88126818,2.75500952 2.88126818,4.1119619 L2.88126818,4.1119619 Z" id="Stroke-592"></path>
                <path d="M2.60071364,22.0886095 L2.60071364,19.2298476 L2.47307727,19.2298476 C1.57839545,19.2298476 0.850622727,18.4968952 0.850622727,17.5918476 L0.850622727,11.0386095 C0.850622727,10.1348 1.57839545,9.40060952 2.47307727,9.40060952 L6.25185,9.40060952" id="Stroke-594" stroke-linecap="round" stroke-linejoin="round"></path>
            </g>
        </g>
    </g>
</svg>