<?xml version="1.0" encoding="UTF-8"?>
<svg width="27px" height="26px" viewBox="0 0 27 26" version="1.1" xmlns="http://www.w3.org/2000/svg" xmlns:xlink="http://www.w3.org/1999/xlink">
    <!-- Generator: Sketch 40.3 (33839) - http://www.bohemiancoding.com/sketch -->
    <title>切图/赛事/主页菜单-报名参赛@1x</title>
    <desc>Created with Sketch.</desc>
    <defs></defs>
    <g id="素材和切图" stroke="none" stroke-width="1" fill="none" fill-rule="evenodd" stroke-linecap="round" stroke-linejoin="round">
        <g id="中帆联/切图/" transform="translate(-329.000000, -767.000000)" stroke="#F8E81C">
            <g id="切图/赛事/主页菜单-报名参赛" transform="translate(330.000000, 768.262147)">
                <path d="M21.7071429,3.43928571 L24.6428571,3.43928571 L24.6428571,18.5119048 C24.6428571,18.5119048 24.1571429,23.95 20.7916667,23.95 C17.3607143,23.95 16.8059524,21.8785714 16.8059524,18.377381 L16.8059524,0 L0,0 L0,18.377381 C0,23.0464286 2.40595238,23.9321429 4.97142857,23.9321429 C7.54761905,23.9321429 21.3142857,23.95 21.3142857,23.95" id="Stroke-1214"></path>
                <polyline id="Stroke-1216" points="16.6666667 2.38095238 20.8678571 2.38095238 20.8678571 20.0107143"></polyline>
                <path d="M13.625,10.1845238 C13.625,10.9333333 13.0190476,11.5380952 12.2714286,11.5380952 L3.73333333,11.5380952 C2.98452381,11.5380952 2.38095238,10.9333333 2.38095238,10.1845238 L2.38095238,4.925 C2.38095238,4.17738095 2.98452381,3.57142857 3.73333333,3.57142857 L12.2714286,3.57142857 C13.0190476,3.57142857 13.625,4.17738095 13.625,4.925 L13.625,10.1845238 L13.625,10.1845238 Z" id="Stroke-1218"></path>
                <path d="M2.38095238,14.2857143 L6.50238095,14.2857143" id="Stroke-1220"></path>
                <path d="M9.52380952,14.2857143 L12.1130952,14.2857143" id="Stroke-1222"></path>
                <path d="M2.38095238,16.6666667 L9.91547619,16.6666667" id="Stroke-1224"></path>
                <path d="M2.38095238,20.2380952 L6.50238095,20.2380952" id="Stroke-1226"></path>
            </g>
        </g>
    </g>
</svg>