<?xml version="1.0" encoding="UTF-8"?>
<svg width="27px" height="24px" viewBox="0 0 27 24" version="1.1" xmlns="http://www.w3.org/2000/svg" xmlns:xlink="http://www.w3.org/1999/xlink">
    <!-- Generator: Sketch 40.3 (33839) - http://www.bohemiancoding.com/sketch -->
    <title>切图/赛事/主页菜单-图片@1x</title>
    <desc>Created with Sketch.</desc>
    <defs></defs>
    <g id="素材和切图" stroke="none" stroke-width="1" fill="none" fill-rule="evenodd" stroke-linecap="round" stroke-linejoin="round">
        <g id="中帆联/切图/" transform="translate(-110.000000, -847.000000)" stroke="#7ED321">
            <g id="切图/赛事/主页菜单-图片" transform="translate(111.000000, 848.262147)">
                <path d="M18.0110936,12.6033272 C18.0110936,15.8519536 15.4432206,18.48779 12.2767225,18.48779 C9.1102244,18.48779 6.54235145,15.8519536 6.54235145,12.6033272 C6.54235145,9.3513431 9.1102244,6.71550672 12.2767225,6.71550672 C15.4432206,6.71550672 18.0110936,9.3513431 18.0110936,12.6033272 L18.0110936,12.6033272 Z" id="Stroke-3606-Copy"></path>
                <path d="M22.6021887,3.89667277 L18.7520149,3.89667277 C17.5792984,1.67551893 16.5734118,0 16.2086757,0 L8.48542984,0 C8.12069374,0 7.11480721,1.67551893 5.94209071,3.89667277 L2.09191688,3.89667277 C0.942098609,3.89667277 0,4.86370574 0,6.04395604 L0,19.6411783 C0,20.8231074 0.942098609,21.7901404 2.09191688,21.7901404 L22.6021887,21.7901404 C23.7536425,21.7901404 24.6941056,20.8231074 24.6941056,19.6411783 L24.6941056,6.04395604 C24.6941056,4.86370574 23.7536425,3.89667277 22.6021887,3.89667277 L22.6021887,3.89667277 Z" id="Stroke-3608-Copy"></path>
            </g>
        </g>
    </g>
</svg>