<?xml version="1.0" encoding="UTF-8"?>
<svg width="28px" height="29px" viewBox="0 0 28 29" version="1.1" xmlns="http://www.w3.org/2000/svg" xmlns:xlink="http://www.w3.org/1999/xlink">
    <!-- Generator: Sketch 40.3 (33839) - http://www.bohemiancoding.com/sketch -->
    <title>切图/赛事/主页菜单-赛场地图@1x</title>
    <desc>Created with Sketch.</desc>
    <defs></defs>
    <g id="素材和切图" stroke="none" stroke-width="1" fill="none" fill-rule="evenodd">
        <g id="中帆联/切图/" transform="translate(-256.000000, -765.000000)" stroke-width="1.2" stroke="#76CA58">
            <g id="切图/赛事/主页菜单-赛场地图" transform="translate(257.000000, 766.262147)">
                <polyline id="Stroke-1" points="21.9832602 14.6149021 18.2446831 18.4497104 3.59083194 5.50726366"></polyline>
                <path d="M23.0672933,22.7090766 L18.2446831,18.4497104" id="Stroke-2"></path>
                <path d="M21.1755312,2.93748703 L24.8393592,2.93748703 C25.2560066,2.93748703 25.5949343,3.28496611 25.5949343,3.7121216 L25.5949343,26.0109271 C25.5948856,26.4380826 25.2559579,26.7856116 24.8393592,26.7856116 L0.779923302,26.7856116 C0.363275964,26.7856116 0.0243482549,26.4380826 0.0243482549,26.0109271 L0.0243482549,3.71207165 C0.0243482549,3.28491615 0.363275964,2.93743707 0.779923302,2.93743707 L12.5056533,2.93743707" id="Path"></path>
                <path d="M3.63656284,24.5821417 L13.5828737,14.3798642" id="Stroke-3"></path>
                <path d="M3.63936775,14.960448 L8.54846292,9.92514844" id="Stroke-4"></path>
                <g id="Group-9" transform="translate(11.270320, 0.035317)">
                    <path d="M5.57010159,0.0396134143 C7.26537319,0.0396134143 8.84776628,0.979745138 9.69966302,2.49319736 C10.1181121,3.23671067 10.3393404,4.08008176 10.3393404,4.93199496 C10.3393404,6.98384993 9.07196501,8.83129369 7.185657,9.52904927 C7.06479226,9.57380793 6.95624774,9.64773965 6.86922708,9.74480001 L5.57015028,11.1937618 L4.27136567,9.74484996 C4.1843937,9.6477896 4.07589788,9.57375798 3.95493575,9.52904927 C2.06862774,8.83124374 0.80130107,6.98379998 0.80130107,4.93194501 C0.80130107,4.0799319 1.02248062,3.23661077 1.44097842,2.4930475 C2.2924856,0.979745138 3.8746352,0.0396134143 5.57010159,0.0396134143 L5.57010159,0.0396134143 Z" id="Stroke-5"></path>
                    <path d="M5.57010159,3.07101371 C6.57047399,3.07101371 7.38424137,3.90579273 7.38424137,4.93199496 C7.38424137,5.95789747 6.57047399,6.79257659 5.57010159,6.79257659 C4.57002136,6.79257659 3.75635138,5.95789747 3.75635138,4.93199496 C3.75635138,3.90579273 4.57002136,3.07101371 5.57010159,3.07101371 L5.57010159,3.07101371 Z" id="Stroke-7"></path>
                </g>
            </g>
        </g>
    </g>
</svg>