<?xml version="1.0" encoding="UTF-8"?>
<svg width="24px" height="31px" viewBox="0 0 24 31" version="1.1" xmlns="http://www.w3.org/2000/svg" xmlns:xlink="http://www.w3.org/1999/xlink">
    <!-- Generator: Sketch 40.3 (33839) - http://www.bohemiancoding.com/sketch -->
    <title>切图/赛事/主页菜单-赛事公告@1x</title>
    <desc>Created with Sketch.</desc>
    <defs></defs>
    <g id="素材和切图" stroke="none" stroke-width="1" fill="none" fill-rule="evenodd">
        <g id="中帆联/切图/" transform="translate(-113.000000, -764.000000)" stroke-width="1.2" stroke="#FB6660">
            <g id="切图/赛事/主页菜单-赛事公告" transform="translate(114.000000, 765.262147)">
                <polyline id="Stroke-1" points="17.4879425 16.6189263 17.4879425 16.6189263 4.87077442 16.6189263"></polyline>
                <polyline id="Stroke-2" points="17.4879425 21.2030273 17.4879425 21.2030273 4.87077442 21.2030273"></polyline>
                <polyline id="Stroke-3" points="17.4879425 12.0356884 17.4879425 12.0356884 4.87077442 12.0356884"></polyline>
                <path d="M5.95986692,4.29559754 L3.27086536,4.29559754 C1.48092389,4.29559754 0.0298313629,5.87705433 0.0298313629,7.82804345 L0.0298313629,25.4106661 C0.0298313629,27.3614069 1.48092389,28.943112 3.27086536,28.943112 L19.1146801,28.943112 C20.9046812,28.943112 22.3557738,27.3614069 22.3557738,25.4106661 L22.3557738,7.82804345 C22.3557738,5.87705433 20.9046812,4.29559754 19.1146801,4.29559754 L16.6642339,4.29559754" id="Stroke-4"></path>
                <path d="M6.28312857,6.46949209 C6.10492841,6.46911951 5.96057733,6.31158237 5.96057733,6.1172845 L5.96057733,3.90890813 L5.96057733,3.90816298 L5.96057733,2.83930733 C5.96057733,2.64482317 6.1052269,2.48716184 6.28378525,2.48716184 L9.40410879,2.48716184 C9.58272684,2.48716184 9.72737641,2.32943841 9.72737641,2.13483005 L9.72737641,2.1340849 C9.72737641,1.00741803 10.2225758,0.0931810138 11.2527339,0.0931810138 C12.2828323,0.0931810138 12.7780318,1.00741803 12.7780318,2.1340849 L12.7780318,2.13483005 C12.7780318,2.32943841 12.922741,2.48716184 13.1012994,2.48716184 L16.34102,2.48716184 C16.5195784,2.48716184 16.6642279,2.64482317 16.6642279,2.83930733 L16.6642279,3.90816298 L16.6642279,3.90890813 L16.6642279,6.1172845 C16.6642279,6.31158237 16.5198768,6.46911951 16.3416767,6.46949209 L6.28312857,6.46949209 L6.28312857,6.46949209 Z" id="Stroke-6"></path>
            </g>
        </g>
    </g>
</svg>