<?xml version="1.0" encoding="UTF-8"?>
<svg width="30px" height="24px" viewBox="0 0 30 24" version="1.1" xmlns="http://www.w3.org/2000/svg" xmlns:xlink="http://www.w3.org/1999/xlink">
    <!-- Generator: Sketch 40.3 (33839) - http://www.bohemiancoding.com/sketch -->
    <title>切图/赛事/主页菜单-赛事论坛</title>
    <desc>Created with Sketch.</desc>
    <defs></defs>
    <g id="切图" stroke="none" stroke-width="1" fill="none" fill-rule="evenodd">
        <g id="中帆联/切图/" transform="translate(-849.000000, -768.000000)">
            <g id="切图/赛事/主页菜单-赛事论坛" transform="translate(850.000000, 769.262147)">
                <path d="M4.08401328,18.4796979 L1.88109805,18.4796979 C0.841577472,18.4796979 0,17.6524171 0,16.6321041 L0,1.84884721 C0,0.827280785 0.841577472,0 1.88109805,0 L26.3558056,0 C27.3966032,0 28.2394577,0.827280785 28.2394577,1.84884721 L28.2394577,16.6321041 C28.2394577,17.6524171 27.3966032,18.4796979 26.3558056,18.4796979 L9.21265536,18.4796979" id="Stroke-542-Copy" stroke="#4A90E2" stroke-linecap="round" stroke-linejoin="round"></path>
                <path d="M4.08401328,18.4796979 L1.88109805,18.4796979 C0.841577472,18.4796979 0,17.6524171 0,16.6321041 L0,1.84884721 C0,0.827280785 0.841577472,0 1.88109805,0 L26.3558056,0 C27.3966032,0 28.2394577,0.827280785 28.2394577,1.84884721 L28.2394577,16.6321041 C28.2394577,17.6524171 27.3966032,18.4796979 26.3558056,18.4796979" id="Stroke-544-Copy" stroke="#4A90E2" stroke-linecap="round" stroke-linejoin="round"></path>
                <path d="M4.51831323,18.4796979 L4.51831323,20.8001168 C4.51831323,22.0789131 5.48869301,22.3230217 6.67846299,21.3452002 L10.1662048,18.4796979" id="Stroke-546-Copy" stroke="#4A90E2" stroke-linecap="round" stroke-linejoin="round"></path>
                <path d="M5.08367694,6.92988671 C4.14829877,6.92988671 3.38873493,7.7041823 3.38873493,8.66294587 C3.38873493,9.61935953 4.14829877,10.3948301 5.08367694,10.3948301 C6.02020423,10.3948301 6.77746985,9.61935953 6.77746985,8.66294587 C6.77746985,7.7041823 6.02020423,6.92988671 5.08367694,6.92988671" id="Fill-548-Copy" fill="#4A90E2"></path>
                <path d="M12.9907251,6.92988671 C12.0541978,6.92988671 11.2957831,7.7041823 11.2957831,8.66294587 C11.2957831,9.61935953 12.0541978,10.3948301 12.9907251,10.3948301 C13.9261033,10.3948301 14.684518,9.61935953 14.684518,8.66294587 C14.684518,7.7041823 13.9261033,6.92988671 12.9907251,6.92988671" id="Fill-550-Copy" fill="#4A90E2"></path>
                <path d="M20.8977733,6.92988671 C19.961246,6.92988671 19.2028312,7.7041823 19.2028312,8.66294587 C19.2028312,9.61935953 19.961246,10.3948301 20.8977733,10.3948301 C21.8331514,10.3948301 22.5915662,9.61935953 22.5915662,8.66294587 C22.5915662,7.7041823 21.8331514,6.92988671 20.8977733,6.92988671" id="Fill-552-Copy" fill="#4A90E2"></path>
            </g>
        </g>
    </g>
</svg>