<?xml version="1.0" encoding="UTF-8"?>
<svg width="32px" height="23px" viewBox="0 0 32 23" version="1.1" xmlns="http://www.w3.org/2000/svg" xmlns:xlink="http://www.w3.org/1999/xlink">
    <!-- Generator: Sketch 40.3 (33839) - http://www.bohemiancoding.com/sketch -->
    <title>切图/赛事/主页菜单-视频直播@1x</title>
    <desc>Created with Sketch.</desc>
    <defs></defs>
    <g id="素材和切图" stroke="none" stroke-width="1" fill="none" fill-rule="evenodd">
        <g id="中帆联/切图/" transform="translate(-620.000000, -768.000000)" stroke="#8F50A6">
            <g id="切图/赛事/主页菜单-视频直播" transform="translate(621.000000, 769.000000)">
                <path d="M9.31694094,6.42671064 L14.8356956,10.5511951 L9.31694094,14.6755702 L9.31694094,6.42671064 L9.31694094,6.42671064 Z M29.7088522,3.00572808 L29.7088522,18.3492798 C29.7088522,18.8686952 29.5049389,19.3088623 29.0970392,19.6702186 C28.7343926,19.9638456 28.3151888,20.1106409 27.839318,20.1106409 C27.4088833,20.1106409 27.0235553,19.9751095 26.6836998,19.7041196 L22.0947735,16.1815068 L22.0947735,17.4008517 C22.0947735,18.4620646 21.7152256,19.3709414 20.9559469,20.1274456 C20.1967779,20.8839134 19.2847654,21.2621472 18.2196168,21.2621472 L3.87501041,21.2621472 C2.81000812,21.2621472 1.89792247,20.8839134 1.13886323,20.1274456 C0.379584495,19.3709778 0,18.4622469 0,17.4008517 L0,4.12344274 C0,3.06222987 0.379584495,2.15320729 1.13886323,1.39670307 C1.89803222,0.640235312 2.81000812,0.262147242 3.87501041,0.262147242 L18.2195436,0.262147242 C19.2847288,0.262147242 20.1968144,0.64034467 20.95602,1.39670307 C21.715189,2.15317084 22.0947369,3.0620476 22.0947369,4.12344274 L22.0947369,5.1733917 L26.6835901,1.65077884 C27.0235918,1.37978899 27.4088101,1.24433052 27.839318,1.24433052 C28.3604053,1.24433052 28.8024369,1.4194496 29.1649371,1.76935968 C29.5275106,2.11941558 29.7088887,2.53147762 29.7088887,3.00572808 L29.7088522,3.00572808 L29.7088522,3.00572808 Z M17.759623,10.6331409 C17.759623,7.00394016 14.8071609,4.06194693 11.1649277,4.06194693 C7.52269449,4.06194693 4.57034219,7.00390371 4.57034219,10.6331409 C4.57034219,14.2622688 7.52273107,17.2041526 11.1649277,17.2041526 C14.8071244,17.2041526 17.759623,14.2622688 17.759623,10.6331409 L17.759623,10.6331409 Z" id="iconfont-tiezi-zhibo-copy-copy-2"></path>
            </g>
        </g>
    </g>
</svg>