<?xml version="1.0" encoding="UTF-8"?>
<svg width="15px" height="14px" viewBox="0 0 15 14" version="1.1" xmlns="http://www.w3.org/2000/svg" xmlns:xlink="http://www.w3.org/1999/xlink">
    <!-- Generator: Sketch 40.3 (33839) - http://www.bohemiancoding.com/sketch -->
    <title>切图/我的菜单/我上传的视频</title>
    <desc>Created with Sketch.</desc>
    <defs></defs>
    <g id="切图" stroke="none" stroke-width="1" fill="none" fill-rule="evenodd">
        <g id="中帆联/切图/" transform="translate(-175.000000, -530.000000)" stroke="#FFFFFF">
            <g id="切图/我的菜单/我上传的视频" transform="translate(176.000000, 530.000000)">
                <path d="M4.30884541,5.88601999 L9.15627811,8.57902999 L4.30884541,11.27204 L4.30884541,5.88601999 L4.30884541,5.88601999 Z M12.9265362,4.26827261 L12.9264627,4.26827261 L2.84217094e-14,4.26827261 L12.9265362,4.26827261 Z M11.7819279,4.26827261 L10.5075263,0.504632851 L11.7819279,4.26827261 Z M8.59592377,4.26827261 L7.32152211,0.504632851 L8.59592377,4.26827261 Z M5.40969901,4.26827261 L4.13559149,0.504632851 L5.40969901,4.26827261 Z M2.223989,4.26827261 L0.985988313,0.612291479 L2.223989,4.26827261 Z M11.3107008,13.4264627 L1.61583541,13.4264627 C0.663821338,13.4264627 2.84217094e-14,12.7626413 2.84217094e-14,11.8106273 L2.84217094e-14,2.11576187 C2.84217094e-14,1.1637478 0.663821338,0.5 1.61583541,0.5 L11.3107008,0.5 C12.2627149,0.5 12.9265362,1.1637478 12.9265362,2.11576187 L12.9265362,11.8106273 C12.9265362,12.7626413 12.2627149,13.4264627 11.3107008,13.4264627 Z" id="Page-1"></path>
            </g>
        </g>
    </g>
</svg>