<?xml version="1.0" encoding="UTF-8"?>
<svg width="23px" height="19px" viewBox="0 0 23 19" version="1.1" xmlns="http://www.w3.org/2000/svg" xmlns:xlink="http://www.w3.org/1999/xlink">
    <!-- Generator: Sketch 40.3 (33839) - http://www.bohemiancoding.com/sketch -->
    <title>切图/赛事/奖杯-季军</title>
    <desc>Created with Sketch.</desc>
    <defs></defs>
    <g id="切图" stroke="none" stroke-width="1" fill="none" fill-rule="evenodd">
        <g id="中帆联/切图/" transform="translate(-429.000000, -257.000000)">
            <g id="切图/赛事/奖杯-季军" transform="translate(429.000000, 257.000000)">
                <path d="M21.860091,1.2141984 L17.6409843,1.2141984 L17.6409843,0.632678007 C17.6409843,0.283245522 17.3572787,0 17.0072787,0 L5.48622829,0 C5.13622829,0 4.85252275,0.283245522 4.85252275,0.632678007 L4.85252275,1.2141984 L0.633705542,1.2141984 C0.283705542,1.2141984 0,1.49744393 0,1.84687641 L0,4.71199157 C0,5.49525215 0.305417701,6.2316905 0.86038048,6.7854644 C1.41505376,7.33952732 2.15268817,7.6444498 2.93722084,7.6444498 L5.01492969,7.6444498 C5.62142266,10.2777661 7.86443342,12.2940117 10.6131927,12.5654072 L10.6131927,15.4131808 L8.91617039,15.4131808 C7.9356493,15.4131808 7.13837883,16.2094475 7.13837883,17.1880897 L7.13837883,18.2282944 C7.13837883,18.5777269 7.42208437,18.8609725 7.77179487,18.8609725 L14.7217122,18.8609725 C15.0717122,18.8609725 15.3554177,18.5777269 15.3554177,18.2282944 L15.3554177,17.1880897 C15.3554177,16.2094475 14.5578577,15.4131808 13.5776261,15.4131808 L11.8806038,15.4131808 L11.8806038,12.5651182 C14.6293631,12.2940117 16.8720844,10.2777661 17.4788668,7.6444498 L19.5562862,7.6444498 C21.1760132,7.6444498 22.4937965,6.32880325 22.4937965,4.71170254 L22.4937965,1.84687641 C22.4937965,1.49744393 22.210091,1.2141984 21.860091,1.2141984 Z M5.12473118,6.20723167 L3.2082713,6.20723167 C2.7624483,6.20723167 2.3429694,6.03381605 2.02770885,5.71877766 C1.71215881,5.4040283 1.53846154,4.98522956 1.53846154,4.53984043 L1.53846154,2.30769231 L5.12473118,2.30769231 L5.12473118,6.20723167 Z M17.6923077,2.30769231 L21.2788668,2.30769231 L21.2788668,4.53984043 C21.2788668,5.45923227 20.5296526,6.20723167 19.6087676,6.20723167 L17.6923077,6.20723167 L17.6923077,2.30769231 Z" id="Combined-Shape" fill="#7E3E1D"></path>
                <path d="M14.6825062,16.5095529 L14.6825062,16.9170796 L9,16.9170796 L9,16.5095529 C9,16.2286196 9.2289909,16 9.51038048,16 L14.1721257,16 C14.4535153,16 14.6825062,16.2286196 14.6825062,16.5095529" id="Fill-84" fill="#E7CAB3"></path>
                <path d="M16.2536394,5.94725877 C16.2536394,8.76959807 13.953598,11.06591 11.1266749,11.06591 C8.29975186,11.06591 6,8.76959807 6,5.94725877 L6,1 L16.2536394,1 L16.2536394,5.94725877 Z" id="Fill-86" fill="#E7CAB3"></path>
            </g>
        </g>
    </g>
</svg>