<?xml version="1.0" encoding="UTF-8"?>
<svg width="14px" height="13px" viewBox="0 0 14 13" version="1.1" xmlns="http://www.w3.org/2000/svg" xmlns:xlink="http://www.w3.org/1999/xlink">
    <!-- Generator: Sketch 40.3 (33839) - http://www.bohemiancoding.com/sketch -->
    <title>切图/赛事/小图标-参赛船只</title>
    <desc>Created with Sketch.</desc>
    <defs></defs>
    <g id="切图" stroke="none" stroke-width="1" fill="none" fill-rule="evenodd">
        <g id="中帆联/切图/" transform="translate(-34.000000, -257.000000)" stroke="#9B9B9B" stroke-width="0.8">
            <g id="切图/赛事/小图标-参赛船只" transform="translate(35.000000, 258.000000)">
                <path d="M1.90429687,11.3265899 C1.90429687,8.44184034 4.23987513,6.09540027 7.08398443,6.09375" id="Stroke-1"></path>
                <path d="M10.368416,11.3265899 C10.368416,9.67566776 11.1333631,8.20105239 12.3208008,7.24134512" id="Stroke-1-Copy" transform="translate(11.344608, 9.283968) scale(-1, 1) translate(-11.344608, -9.283968) "></path>
                <path d="M7.09497711,6.0944374 C5.45170256,6.0944374 4.1145523,4.72979838 4.1145523,3.05266876 C4.1145523,1.37427266 5.45130237,0.0100626118 7.09497711,0.0100626118 C8.73825166,0.0100626118 10.0750017,1.37470163 10.0750017,3.05266876 C10.0750017,4.73022735 8.73825166,6.0944374 7.09497711,6.0944374" id="Stroke-3"></path>
                <path d="M4.48131583,0.248536449 C2.92959011,0.248536449 1.66721973,1.58513305 1.66721973,3.22771355 C1.66721973,4.32133833 2.22712158,5.27889647 3.05953089,5.79669835 C1.28922295,6.42867062 0.010004679,8.20540586 0.010004679,10.2942833" id="Stroke-7"></path>
            </g>
        </g>
    </g>
</svg>