<?xml version="1.0" encoding="UTF-8"?>
<svg width="32px" height="32px" viewBox="0 0 32 32" version="1.1" xmlns="http://www.w3.org/2000/svg" xmlns:xlink="http://www.w3.org/1999/xlink">
    <!-- Generator: Sketch 40.3 (33839) - http://www.bohemiancoding.com/sketch -->
    <title>切图/通用/登陆注册-未登录头像</title>
    <desc>Created with Sketch.</desc>
    <defs>
        <circle id="path-1" cx="15" cy="15" r="15"></circle>
    </defs>
    <g id="切图" stroke="none" stroke-width="1" fill="none" fill-rule="evenodd">
        <g id="中帆联/切图/" transform="translate(-503.000000, -519.000000)">
            <g id="切图/通用/登陆注册-未登录头像" transform="translate(504.000000, 520.000000)">
                <mask id="mask-2" fill="white">
                    <use xlink:href="#path-1"></use>
                </mask>
                <use id="Oval-4" stroke="#0F1619" fill="#274050" xlink:href="#path-1"></use>
                <g id="Group-3" mask="url(#mask-2)" stroke-linecap="round" stroke="#5C6D78" stroke-linejoin="round">
                    <g transform="translate(6.000000, 5.000000)">
                        <path d="M0,18.9 C0.68620332,16.4769521 3.65274896,14.569976 7.40819502,14.1455749 C7.40819502,14.1297305 7.40469398,14.1093593 7.40469398,14.0912515 L7.40469398,13.5514132 C4.81159232,12.7580659 2.90119295,10.0837725 2.90119295,6.89906587 C2.90119295,3.08511377 5.63200207,0 9,0" id="Stroke-3318"></path>
                        <path d="M18,18.9 C17.3155094,16.4769521 14.3427644,14.569976 10.5827385,14.1455749 C10.5827385,14.1297305 10.5897469,14.1093593 10.5897469,14.0912515 L10.5897469,13.5514132 C13.1875406,12.7580659 15.0996755,10.0837725 15.0996755,6.89906587 C15.0996755,3.08511377 12.3687216,0 9,0" id="Stroke-3319"></path>
                        <path d="M13.5,14.4 C13.5,16.3882491 11.6865139,18 9.44940502,18 C7.21229617,18 5.4,16.3882491 5.4,14.4" id="Stroke-3394"></path>
                    </g>
                </g>
            </g>
        </g>
    </g>
</svg>