<?xml version="1.0" encoding="UTF-8"?>
<svg width="14px" height="13px" viewBox="0 0 14 13" version="1.1" xmlns="http://www.w3.org/2000/svg" xmlns:xlink="http://www.w3.org/1999/xlink">
    <!-- Generator: Sketch 40.3 (33839) - http://www.bohemiancoding.com/sketch -->
    <title>切图/我的菜单/常见问题</title>
    <desc>Created with Sketch.</desc>
    <defs></defs>
    <g id="切图" stroke="none" stroke-width="1" fill="none" fill-rule="evenodd">
        <g id="中帆联/切图/" transform="translate(-43.000000, -603.000000)" stroke="#FFFFFF">
            <g id="切图/我的菜单/常见问题" transform="translate(44.000000, 603.500000)">
                <path d="M6.28087768,9.14867926 L6.28087768,8.10351767 L6.28087768,9.14867926 Z M5.98063477,11.4982908 C4.96260724,11.4982908 3.96131169,11.2027449 3.08605987,10.6431184 L2.97313355,10.5714232 L2.84848902,10.614743 L1.91062343,10.9403038 L2.09863963,10.0590891 L2.13507687,9.88719705 L2.01841938,9.76348019 C1.00260724,8.68130444 0.442173229,7.25616435 0.442173229,5.74911386 C0.442173229,2.57894803 2.92649388,0 5.98063477,0 C9.03483396,0 11.5190963,2.57894803 11.5190963,5.74911386 C11.5190963,8.91934275 9.03483396,11.4982908 5.98063477,11.4982908 Z" id="Page-1"></path>
                <path d="M6.27411671,7.68086092 L6.27411671,7.41043321 C6.25381868,6.98927816 6.48434627,6.62895919 6.96569947,6.32814244 C7.72687547,5.84748517 8.08789037,5.29653873 8.04799025,4.67530313 C7.94800797,3.67345053 7.34631647,3.14210619 6.2444236,3.08190804 C4.94169625,3.04200792 4.16022223,3.63355041 3.90000153,4.85583958" id="Path"></path>
            </g>
        </g>
    </g>
</svg>