<?xml version="1.0" encoding="UTF-8"?>
<svg width="25px" height="25px" viewBox="0 0 25 25" version="1.1" xmlns="http://www.w3.org/2000/svg" xmlns:xlink="http://www.w3.org/1999/xlink">
    <!-- Generator: Sketch 40.3 (33839) - http://www.bohemiancoding.com/sketch -->
    <title>切图/赛事/主页菜单-关于我们</title>
    <desc>Created with Sketch.</desc>
    <defs></defs>
    <g id="切图" stroke="none" stroke-width="1" fill="none" fill-rule="evenodd">
        <g id="中帆联/切图/" transform="translate(-596.000000, -847.000000)" stroke="#55CCFF">
            <g id="切图/赛事/主页菜单-关于我们" transform="translate(597.000000, 848.262147)">
                <path d="M9.50989474,7.60815789 C9.50989474,8.65889474 8.65768421,9.50989474 7.60815789,9.50989474 L1.90173684,9.50989474 C0.852210526,9.50989474 0,8.65889474 0,7.60815789 L0,1.90173684 C0,0.851 0.852210526,0 1.90173684,0 L7.60815789,0 C8.65768421,0 9.50989474,0.851 9.50989474,1.90173684 L9.50989474,7.60815789 L9.50989474,7.60815789 Z" id="Stroke-110"></path>
                <path d="M22.8256842,7.60815789 C22.8256842,8.65889474 21.9734737,9.50989474 20.9239474,9.50989474 L15.2175263,9.50989474 C14.168,9.50989474 13.3157895,8.65889474 13.3157895,7.60815789 L13.3157895,1.90173684 C13.3157895,0.851 14.168,0 15.2175263,0 L20.9239474,0 C21.9734737,0 22.8256842,0.851 22.8256842,1.90173684 L22.8256842,7.60815789 L22.8256842,7.60815789 Z" id="Stroke-112"></path>
                <path d="M9.50989474,20.9239474 C9.50989474,21.9746842 8.65768421,22.8256842 7.60815789,22.8256842 L1.90173684,22.8256842 C0.852210526,22.8256842 0,21.9746842 0,20.9239474 L0,15.2175263 C0,14.1667895 0.852210526,13.3157895 1.90173684,13.3157895 L7.60815789,13.3157895 C8.65768421,13.3157895 9.50989474,14.1667895 9.50989474,15.2175263 L9.50989474,20.9239474 L9.50989474,20.9239474 Z" id="Stroke-114"></path>
                <path d="M22.8256842,20.9239474 C22.8256842,21.9746842 21.9734737,22.8256842 20.9239474,22.8256842 L15.2175263,22.8256842 C14.168,22.8256842 13.3157895,21.9746842 13.3157895,20.9239474 L13.3157895,15.2175263 C13.3157895,14.1667895 14.168,13.3157895 15.2175263,13.3157895 L20.9239474,13.3157895 C21.9734737,13.3157895 22.8256842,14.1667895 22.8256842,15.2175263 L22.8256842,20.9239474 L22.8256842,20.9239474 Z" id="Stroke-116"></path>
            </g>
        </g>
    </g>
</svg>