<?xml version="1.0" encoding="UTF-8"?>
<svg width="20px" height="20px" viewBox="0 0 20 20" version="1.1" xmlns="http://www.w3.org/2000/svg" xmlns:xlink="http://www.w3.org/1999/xlink">
    <!-- Generator: Sketch 40.3 (33839) - http://www.bohemiancoding.com/sketch -->
    <title>切图/常用/数据增加列</title>
    <desc>Created with Sketch.</desc>
    <defs></defs>
    <g id="切图" stroke="none" stroke-width="1" fill="none" fill-rule="evenodd">
        <g id="中帆联/切图/" transform="translate(-579.000000, -37.000000)">
            <g id="切图/常用/数据增加列" transform="translate(579.000000, 37.000000)">
                <circle id="Oval" fill="#00B1FF" cx="10" cy="10" r="10"></circle>
                <path d="M17.3615385,10.1807692 C17.3615385,9.59956914 16.8898398,9.12787052 16.3086397,9.12787052 L11.2336679,9.12787052 L11.2336679,4.05289871 C11.2336679,3.47169862 10.7619693,3 10.1807692,3 C9.59746334,3 9.12787052,3.47169862 9.12787052,4.05289871 L9.12787052,9.12787052 L4.05289871,9.12787052 C3.46959283,9.12787052 3,9.59956914 3,10.1807692 C3,10.7619693 3.46959283,11.2336679 4.05289871,11.2336679 L9.12787052,11.2336679 L9.12787052,16.3086397 C9.12787052,16.8919456 9.59746334,17.3615385 10.1807692,17.3615385 C10.7619693,17.3615385 11.2336679,16.8919456 11.2336679,16.3086397 L11.2336679,11.2336679 L16.3086397,11.2336679 C16.8898398,11.2336679 17.3615385,10.7619693 17.3615385,10.1807692" id="Fill-3763-Copy" fill="#FFFFFF"></path>
            </g>
        </g>
    </g>
</svg>